<?xml version="1.0" encoding="UTF-8"?>
<svg id="Capa_1" data-name="Capa 1" xmlns="http://www.w3.org/2000/svg" viewBox="0 0 2228.77 1498.55">
  <defs>
    <style>
      .cls-1 {
        stroke-dasharray: 1.99 1.99;
      }

      .cls-1, .cls-2, .cls-3, .cls-4 {
        fill: none;
        stroke: #1d1d1b;
        stroke-miterlimit: 10;
        stroke-width: .8px;
      }

      .cls-5, .cls-6 {
        fill: #1d1d1b;
      }

      .cls-7 {
        fill: #e7d7bf;
      }

      .cls-8 {
        fill: #e5a5ca;
      }

      .cls-9 {
        fill: #fcc100;
      }

      .cls-10 {
        letter-spacing: 0em;
      }

      .cls-11 {
        fill: #fff;
      }

      .cls-2 {
        stroke-dasharray: 2.07 2.07;
      }

      .cls-12 {
        fill: #cb7612;
      }

      .cls-13 {
        letter-spacing: -.04em;
      }

      .cls-6 {
        font-family: Helvetica, Helvetica;
        font-size: 24.89px;
      }

      .cls-14 {
        fill: #007b8f;
      }

      .cls-4 {
        stroke-dasharray: 1.9 1.9;
      }

      .cls-15 {
        fill: #93a557;
      }
    </style>
  </defs>
  <rect class="cls-11" x="0" y="0" width="2228.77" height="1498.55"/>
  <g>
    <g>
      <g>
        <line class="cls-3" x1="1724.07" y1="784.77" x2="1724.07" y2="781.66"/>
        <line class="cls-2" x1="1724.07" y1="775.22" x2="1724.07" y2="675.32"/>
        <polyline class="cls-3" points="1724.07 672.09 1724.07 668.98 1727.18 668.98"/>
        <line class="cls-4" x1="1733.1" y1="668.98" x2="1836.76" y2="668.98"/>
        <line class="cls-3" x1="1839.72" y1="668.98" x2="1842.83" y2="668.98"/>
        <circle class="cls-5" cx="1724.07" cy="784.31" r="9.36"/>
      </g>
      <g>
        <line class="cls-3" x1="306.66" y1="722.38" x2="306.66" y2="725.5"/>
        <line class="cls-1" x1="306.66" y1="731.67" x2="306.66" y2="988.04"/>
        <line class="cls-3" x1="306.66" y1="991.13" x2="306.66" y2="994.24"/>
        <path class="cls-5" d="M297.3,993.77c0,5.17,4.19,9.36,9.36,9.36s9.36-4.19,9.36-9.36-4.19-9.36-9.36-9.36-9.36,4.19-9.36,9.36Z"/>
      </g>
      <g>
        <line class="cls-3" x1="692.71" y1="408.58" x2="692.71" y2="411.69"/>
        <line class="cls-1" x1="692.71" y1="417.87" x2="692.71" y2="674.24"/>
        <line class="cls-3" x1="692.71" y1="677.32" x2="692.71" y2="680.44"/>
        <path class="cls-5" d="M683.35,679.97c0,5.17,4.19,9.36,9.36,9.36s9.36-4.19,9.36-9.36-4.19-9.36-9.36-9.36-9.36,4.19-9.36,9.36Z"/>
      </g>
      <g>
        <line class="cls-3" x1="692.71" y1="1046.27" x2="692.71" y2="1049.38"/>
        <line class="cls-1" x1="692.71" y1="1055.55" x2="692.71" y2="1311.92"/>
        <line class="cls-3" x1="692.71" y1="1315.01" x2="692.71" y2="1318.12"/>
        <path class="cls-5" d="M683.35,1317.65c0,5.17,4.19,9.36,9.36,9.36s9.36-4.19,9.36-9.36-4.19-9.36-9.36-9.36-9.36,4.19-9.36,9.36Z"/>
      </g>
      <g>
        <line class="cls-3" x1="1345.29" y1="408.58" x2="1345.29" y2="411.69"/>
        <line class="cls-1" x1="1345.29" y1="417.87" x2="1345.29" y2="674.24"/>
        <line class="cls-3" x1="1345.29" y1="677.32" x2="1345.29" y2="680.44"/>
        <path class="cls-5" d="M1335.93,679.97c0,5.17,4.19,9.36,9.36,9.36s9.36-4.19,9.36-9.36-4.19-9.36-9.36-9.36-9.36,4.19-9.36,9.36Z"/>
      </g>
      <g>
        <line class="cls-3" x1="1345.29" y1="1046.27" x2="1345.29" y2="1049.38"/>
        <line class="cls-1" x1="1345.29" y1="1055.55" x2="1345.29" y2="1311.92"/>
        <line class="cls-3" x1="1345.29" y1="1315.01" x2="1345.29" y2="1318.12"/>
        <path class="cls-5" d="M1335.93,1317.65c0,5.17,4.19,9.36,9.36,9.36s9.36-4.19,9.36-9.36-4.19-9.36-9.36-9.36-9.36,4.19-9.36,9.36Z"/>
      </g>
      <path class="cls-5" d="M1746.81,423.79H533.05c-125.95,0-228.41,102.46-228.41,228.41v49.47c1.46.09,2.82.32,4.04.72v-50.2c0-123.72,100.65-224.37,224.37-224.37h1213.76c123.72,0,224.37,100.65,224.37,224.37v167.68c0,123.72-100.65,224.37-224.37,224.37H533.05c-22.11,0-43.46-3.27-63.65-9.26l5.35-9.57h-27.7l14.81,23.06,5.51-9.86c20.81,6.26,42.85,9.67,65.68,9.67h1213.76c125.95,0,228.41-102.47,228.41-228.41v-167.68c0-125.95-102.46-228.41-228.41-228.41Z"/>
      <g>
        <rect class="cls-9" x="656.79" y="374.97" width="339.89" height="101.8" rx="16.36" ry="16.36"/>
        <g>
          <path class="cls-11" d="M730.94,417.61c1.37-1.75,3.73-2.63,7.07-2.63,2.18,0,4.11.43,5.8,1.29s2.53,2.49,2.53,4.89v9.12c0,.63.01,1.4.04,2.3.04.68.14,1.14.31,1.39s.43.44.77.6v.77h-5.65c-.16-.4-.27-.78-.33-1.13s-.11-.75-.15-1.2c-.72.78-1.54,1.44-2.48,1.99-1.12.64-2.38.97-3.79.97-1.8,0-3.28-.51-4.46-1.54s-1.76-2.48-1.76-4.37c0-2.44.94-4.21,2.83-5.31,1.03-.6,2.55-1.02,4.56-1.28l1.77-.22c.96-.12,1.65-.27,2.06-.46.74-.32,1.11-.81,1.11-1.48,0-.81-.28-1.38-.85-1.69s-1.39-.46-2.49-.46c-1.23,0-2.1.3-2.61.91-.36.45-.61,1.06-.73,1.82h-5.01c.11-1.74.6-3.17,1.46-4.28ZM734.81,431.57c.49.4,1.08.6,1.79.6,1.12,0,2.15-.33,3.09-.98s1.43-1.85,1.47-3.59v-1.93c-.33.21-.66.37-.99.5s-.79.25-1.38.36l-1.17.22c-1.09.19-1.88.43-2.35.71-.8.47-1.2,1.21-1.2,2.21,0,.89.25,1.53.75,1.91Z"/>
          <path class="cls-11" d="M760.31,419.3c-1.76,0-2.97.75-3.63,2.24-.34.79-.51,1.8-.51,3.03v10.76h-5.18v-19.84h5.01v2.9c.67-1.02,1.3-1.76,1.9-2.21,1.07-.8,2.42-1.2,4.07-1.2,2.05,0,3.73.54,5.04,1.61s1.96,2.86,1.96,5.35v13.38h-5.32v-12.09c0-1.05-.14-1.85-.42-2.41-.51-1.02-1.48-1.53-2.92-1.53Z"/>
          <path class="cls-11" d="M782.87,431.63v3.88l-2.46.09c-2.46.09-4.13-.34-5.03-1.28-.58-.6-.88-1.51-.88-2.75v-12.23h-2.77v-3.7h2.77v-5.54h5.14v5.54h3.23v3.7h-3.23v10.5c0,.81.1,1.32.31,1.52s.84.3,1.9.3c.16,0,.33,0,.5,0s.35-.02.52-.03Z"/>
          <path class="cls-11" d="M791.55,408.29v4.8h-5.27v-4.8h5.27ZM791.55,415.45v19.87h-5.27v-19.87h5.27Z"/>
          <path class="cls-11" d="M802.19,438.81c.56.47,1.5.71,2.83.71,1.87,0,3.12-.63,3.76-1.88.41-.8.62-2.15.62-4.05v-1.28c-.5.85-1.03,1.49-1.6,1.91-1.03.79-2.38,1.19-4.03,1.19-2.55,0-4.59-.9-6.12-2.69s-2.29-4.22-2.29-7.28.74-5.44,2.21-7.45,3.56-3.02,6.25-3.02c1,0,1.87.15,2.61.46,1.26.52,2.29,1.48,3.06,2.88v-2.86h5.05v18.85c0,2.56-.43,4.5-1.29,5.8-1.48,2.24-4.33,3.35-8.53,3.35-2.54,0-4.61-.5-6.22-1.5s-2.49-2.49-2.66-4.47h5.65c.15.61.38,1.05.71,1.31ZM801.32,428.55c.7,1.68,1.97,2.52,3.79,2.52,1.22,0,2.24-.46,3.08-1.38s1.26-2.38,1.26-4.38c0-1.88-.4-3.32-1.19-4.3s-1.86-1.48-3.2-1.48c-1.82,0-3.08.86-3.77,2.57-.36.91-.55,2.04-.55,3.37,0,1.15.19,2.18.58,3.08Z"/>
          <path class="cls-11" d="M832.13,432.52c-.05.06-.17.24-.36.55s-.43.57-.69.8c-.81.73-1.6,1.23-2.36,1.5s-1.65.4-2.67.4c-2.94,0-4.92-1.06-5.94-3.17-.57-1.17-.86-2.89-.86-5.16v-11.98h5.32v11.98c0,1.13.13,1.98.4,2.55.47,1.01,1.4,1.51,2.79,1.51,1.77,0,2.99-.72,3.65-2.15.34-.78.51-1.81.51-3.08v-10.81h5.27v19.87h-5.05v-2.81Z"/>
          <path class="cls-11" d="M859.21,429.49c-.13,1.18-.75,2.38-1.84,3.59-1.7,1.93-4.08,2.9-7.15,2.9-2.53,0-4.76-.81-6.69-2.44s-2.9-4.28-2.9-7.95c0-3.44.87-6.08,2.62-7.91s4.01-2.75,6.79-2.75c1.65,0,3.14.31,4.47.93s2.42,1.6,3.28,2.94c.78,1.18,1.28,2.55,1.51,4.1.13.91.19,2.22.16,3.94h-13.6c.07,1.99.7,3.39,1.88,4.19.72.5,1.58.75,2.59.75,1.07,0,1.94-.3,2.61-.91.36-.33.69-.78.97-1.37h5.31ZM854.07,423.4c-.09-1.37-.5-2.42-1.25-3.13s-1.67-1.07-2.78-1.07c-1.2,0-2.14.38-2.8,1.13s-1.08,1.77-1.25,3.06h8.08Z"/>
          <path class="cls-11" d="M881.05,408.49v26.84h-5.05v-2.75c-.74,1.18-1.59,2.04-2.53,2.57s-2.13.8-3.54.8c-2.32,0-4.28-.94-5.86-2.82s-2.38-4.29-2.38-7.23c0-3.39.78-6.06,2.34-8s3.65-2.92,6.26-2.92c1.2,0,2.27.26,3.21.79s1.7,1.26,2.28,2.2v-9.48h5.27ZM867.05,425.52c0,1.84.36,3.3,1.09,4.39.72,1.11,1.81,1.66,3.28,1.66s2.59-.55,3.35-1.64,1.15-2.51,1.15-4.25c0-2.43-.61-4.17-1.84-5.21-.75-.63-1.63-.95-2.63-.95-1.52,0-2.63.57-3.35,1.72s-1.07,2.57-1.07,4.28Z"/>
          <path class="cls-11" d="M886.52,417.61c1.37-1.75,3.73-2.63,7.07-2.63,2.18,0,4.11.43,5.8,1.29s2.53,2.49,2.53,4.89v9.12c0,.63.01,1.4.04,2.3.04.68.14,1.14.31,1.39s.43.44.77.6v.77h-5.65c-.16-.4-.27-.78-.33-1.13s-.11-.75-.15-1.2c-.72.78-1.54,1.44-2.48,1.99-1.12.64-2.38.97-3.79.97-1.8,0-3.28-.51-4.46-1.54s-1.76-2.48-1.76-4.37c0-2.44.94-4.21,2.83-5.31,1.03-.6,2.55-1.02,4.56-1.28l1.77-.22c.96-.12,1.65-.27,2.06-.46.74-.32,1.11-.81,1.11-1.48,0-.81-.28-1.38-.85-1.69s-1.39-.46-2.49-.46c-1.23,0-2.1.3-2.61.91-.36.45-.61,1.06-.73,1.82h-5.01c.11-1.74.6-3.17,1.46-4.28ZM890.39,431.57c.49.4,1.08.6,1.79.6,1.12,0,2.15-.33,3.09-.98s1.43-1.85,1.47-3.59v-1.93c-.33.21-.66.37-.99.5s-.79.25-1.38.36l-1.17.22c-1.09.19-1.88.43-2.35.71-.8.47-1.2,1.21-1.2,2.21,0,.89.25,1.53.75,1.91Z"/>
          <path class="cls-11" d="M924.63,408.49v26.84h-5.05v-2.75c-.74,1.18-1.59,2.04-2.53,2.57s-2.13.8-3.54.8c-2.32,0-4.28-.94-5.86-2.82s-2.38-4.29-2.38-7.23c0-3.39.78-6.06,2.34-8s3.65-2.92,6.26-2.92c1.2,0,2.27.26,3.21.79s1.7,1.26,2.28,2.2v-9.48h5.27ZM910.62,425.52c0,1.84.36,3.3,1.09,4.39.72,1.11,1.81,1.66,3.28,1.66s2.59-.55,3.35-1.64,1.15-2.51,1.15-4.25c0-2.43-.61-4.17-1.84-5.21-.75-.63-1.63-.95-2.63-.95-1.52,0-2.63.57-3.35,1.72s-1.07,2.57-1.07,4.28Z"/>
        </g>
      </g>
      <g>
        <rect class="cls-15" x="1304.59" y="374.97" width="339.89" height="101.8" rx="16.36" ry="16.36"/>
        <g>
          <path class="cls-11" d="M1391.35,433.23c-.13,1.18-.75,2.38-1.84,3.59-1.7,1.93-4.08,2.9-7.15,2.9-2.53,0-4.76-.81-6.69-2.44s-2.9-4.28-2.9-7.95c0-3.44.87-6.08,2.62-7.91s4.01-2.75,6.79-2.75c1.65,0,3.14.31,4.47.93s2.42,1.6,3.28,2.94c.78,1.18,1.28,2.55,1.51,4.1.13.91.19,2.22.16,3.94h-13.6c.07,1.99.7,3.39,1.88,4.19.72.5,1.58.75,2.59.75,1.07,0,1.94-.3,2.61-.91.36-.33.69-.78.97-1.37h5.31ZM1386.21,427.14c-.09-1.37-.5-2.42-1.25-3.13s-1.67-1.07-2.78-1.07c-1.2,0-2.14.38-2.8,1.13s-1.08,1.77-1.25,3.06h8.08Z"/>
          <path class="cls-11" d="M1413.2,412.23v26.84h-5.05v-2.75c-.74,1.18-1.59,2.04-2.53,2.57s-2.13.8-3.54.8c-2.32,0-4.28-.94-5.86-2.82s-2.38-4.29-2.38-7.23c0-3.39.78-6.06,2.34-8s3.65-2.92,6.26-2.92c1.2,0,2.27.26,3.21.79s1.7,1.26,2.28,2.2v-9.48h5.27ZM1399.19,429.26c0,1.84.36,3.3,1.09,4.39.72,1.11,1.81,1.66,3.28,1.66s2.59-.55,3.35-1.64,1.15-2.51,1.15-4.25c0-2.43-.61-4.17-1.84-5.21-.75-.63-1.63-.95-2.63-.95-1.52,0-2.63.57-3.35,1.72s-1.07,2.57-1.07,4.28Z"/>
          <path class="cls-11" d="M1418.67,421.34c1.37-1.75,3.73-2.63,7.07-2.63,2.18,0,4.11.43,5.8,1.29s2.53,2.49,2.53,4.89v9.12c0,.63.01,1.4.04,2.3.04.68.14,1.14.31,1.39s.43.44.77.6v.77h-5.65c-.16-.4-.27-.78-.33-1.13s-.11-.75-.15-1.2c-.72.78-1.54,1.44-2.48,1.99-1.12.64-2.38.97-3.79.97-1.8,0-3.28-.51-4.46-1.54s-1.76-2.48-1.76-4.37c0-2.44.94-4.21,2.83-5.31,1.03-.6,2.55-1.02,4.56-1.28l1.77-.22c.96-.12,1.65-.27,2.06-.46.74-.32,1.11-.81,1.11-1.48,0-.81-.28-1.38-.85-1.69s-1.39-.46-2.49-.46c-1.23,0-2.1.3-2.61.91-.36.45-.61,1.06-.73,1.82h-5.01c.11-1.74.6-3.17,1.46-4.28ZM1422.53,435.31c.49.4,1.08.6,1.79.6,1.12,0,2.15-.33,3.09-.98s1.43-1.85,1.47-3.59v-1.93c-.33.21-.66.37-.99.5s-.79.25-1.38.36l-1.17.22c-1.09.19-1.88.43-2.35.71-.8.47-1.2,1.21-1.2,2.21,0,.89.25,1.53.75,1.91Z"/>
          <path class="cls-11" d="M1456.77,412.23v26.84h-5.05v-2.75c-.74,1.18-1.59,2.04-2.53,2.57s-2.13.8-3.54.8c-2.32,0-4.28-.94-5.86-2.82s-2.38-4.29-2.38-7.23c0-3.39.78-6.06,2.34-8s3.65-2.92,6.26-2.92c1.2,0,2.27.26,3.21.79s1.7,1.26,2.28,2.2v-9.48h5.27ZM1442.77,429.26c0,1.84.36,3.3,1.09,4.39.72,1.11,1.81,1.66,3.28,1.66s2.59-.55,3.35-1.64,1.15-2.51,1.15-4.25c0-2.43-.61-4.17-1.84-5.21-.75-.63-1.63-.95-2.63-.95-1.52,0-2.63.57-3.35,1.72s-1.07,2.57-1.07,4.28Z"/>
          <path class="cls-11" d="M1483.03,424.66c-.44-.96-1.29-1.44-2.57-1.44-1.48,0-2.48.48-2.99,1.44-.28.55-.42,1.36-.42,2.44v11.96h-5.27v-19.84h5.05v2.9c.64-1.03,1.25-1.77,1.82-2.21,1.01-.78,2.32-1.17,3.92-1.17,1.52,0,2.75.33,3.68,1,.75.62,1.32,1.42,1.71,2.39.68-1.17,1.53-2.02,2.53-2.57,1.07-.55,2.26-.82,3.57-.82.88,0,1.74.17,2.59.51s1.62.94,2.32,1.79c.56.69.94,1.54,1.13,2.55.12.67.18,1.65.18,2.94l-.04,12.53h-5.32v-12.65c0-.75-.12-1.37-.36-1.86-.46-.92-1.31-1.39-2.55-1.39-1.43,0-2.42.6-2.97,1.79-.28.63-.42,1.39-.42,2.28v11.83h-5.23v-11.83c0-1.18-.12-2.04-.36-2.57Z"/>
          <path class="cls-11" d="M1522.08,433.23c-.13,1.18-.75,2.38-1.84,3.59-1.7,1.93-4.08,2.9-7.15,2.9-2.53,0-4.76-.81-6.69-2.44s-2.9-4.28-2.9-7.95c0-3.44.87-6.08,2.62-7.91s4.01-2.75,6.79-2.75c1.65,0,3.14.31,4.47.93s2.42,1.6,3.28,2.94c.78,1.18,1.28,2.55,1.51,4.1.13.91.19,2.22.16,3.94h-13.6c.07,1.99.7,3.39,1.88,4.19.72.5,1.58.75,2.59.75,1.07,0,1.94-.3,2.61-.91.36-.33.69-.78.97-1.37h5.31ZM1516.94,427.14c-.09-1.37-.5-2.42-1.25-3.13s-1.67-1.07-2.78-1.07c-1.2,0-2.14.38-2.8,1.13s-1.08,1.77-1.25,3.06h8.08Z"/>
          <path class="cls-11" d="M1543.93,412.23v26.84h-5.05v-2.75c-.74,1.18-1.59,2.04-2.53,2.57s-2.13.8-3.54.8c-2.32,0-4.28-.94-5.86-2.82s-2.38-4.29-2.38-7.23c0-3.39.78-6.06,2.34-8s3.65-2.92,6.26-2.92c1.2,0,2.27.26,3.21.79s1.7,1.26,2.28,2.2v-9.48h5.27ZM1529.92,429.26c0,1.84.36,3.3,1.09,4.39.72,1.11,1.81,1.66,3.28,1.66s2.59-.55,3.35-1.64,1.15-2.51,1.15-4.25c0-2.43-.61-4.17-1.84-5.21-.75-.63-1.63-.95-2.63-.95-1.52,0-2.63.57-3.35,1.72s-1.07,2.57-1.07,4.28Z"/>
          <path class="cls-11" d="M1553.99,412.03v4.8h-5.27v-4.8h5.27ZM1553.99,419.19v19.87h-5.27v-19.87h5.27Z"/>
          <path class="cls-11" d="M1559.77,421.34c1.37-1.75,3.73-2.63,7.07-2.63,2.18,0,4.11.43,5.8,1.29s2.53,2.49,2.53,4.89v9.12c0,.63.01,1.4.04,2.3.04.68.14,1.14.31,1.39s.43.44.77.6v.77h-5.65c-.16-.4-.27-.78-.33-1.13s-.11-.75-.15-1.2c-.72.78-1.54,1.44-2.48,1.99-1.12.64-2.38.97-3.79.97-1.8,0-3.28-.51-4.46-1.54s-1.76-2.48-1.76-4.37c0-2.44.94-4.21,2.83-5.31,1.03-.6,2.55-1.02,4.56-1.28l1.77-.22c.96-.12,1.65-.27,2.06-.46.74-.32,1.11-.81,1.11-1.48,0-.81-.28-1.38-.85-1.69s-1.39-.46-2.49-.46c-1.23,0-2.1.3-2.61.91-.36.45-.61,1.06-.73,1.82h-5.01c.11-1.74.6-3.17,1.46-4.28ZM1563.64,435.31c.49.4,1.08.6,1.79.6,1.12,0,2.15-.33,3.09-.98s1.43-1.85,1.47-3.59v-1.93c-.33.21-.66.37-.99.5s-.79.25-1.38.36l-1.17.22c-1.09.19-1.88.43-2.35.71-.8.47-1.2,1.21-1.2,2.21,0,.89.25,1.53.75,1.91Z"/>
        </g>
      </g>
      <g>
        <rect class="cls-8" x="656.79" y="995.94" width="339.89" height="101.8" rx="16.36" ry="16.36"/>
        <g>
          <path class="cls-11" d="M754.1,1045.15v11.67h-5.31v-12.09c0-1.07-.18-1.93-.55-2.59-.47-.92-1.37-1.39-2.7-1.39s-2.42.46-3.13,1.38-1.07,2.23-1.07,3.93v10.76h-5.18v-26.78h5.18v9.5c.75-1.15,1.63-1.96,2.62-2.42s2.03-.68,3.13-.68c1.23,0,2.34.21,3.35.64s1.83,1.08,2.47,1.95c.55.74.88,1.5,1,2.29s.18,2.06.18,3.84Z"/>
          <path class="cls-11" d="M775.52,1039.46c1.68,2.1,2.52,4.59,2.52,7.46s-.84,5.41-2.52,7.48-4.22,3.11-7.64,3.11-5.96-1.04-7.64-3.11-2.52-4.57-2.52-7.48.84-5.35,2.52-7.46,4.22-3.15,7.64-3.15,5.96,1.05,7.64,3.15ZM767.86,1040.7c-1.52,0-2.69.54-3.51,1.61s-1.23,2.61-1.23,4.6.41,3.53,1.23,4.61,1.99,1.62,3.51,1.62,2.69-.54,3.5-1.62,1.22-2.62,1.22-4.61-.41-3.53-1.22-4.6-1.98-1.61-3.5-1.61Z"/>
          <path class="cls-11" d="M789.83,1051.6l4.1-14.66h5.52l-6.82,19.55c-1.31,3.77-2.35,6.1-3.12,7.01s-2.3,1.36-4.59,1.36c-.46,0-.83,0-1.11,0s-.7-.03-1.26-.06v-4.16l.66.04c.51.02,1,0,1.46-.05s.85-.2,1.17-.42c.3-.21.59-.64.85-1.29s.37-1.06.32-1.2l-7.29-20.75h5.78l4.34,14.66Z"/>
          <path class="cls-11" d="M829.91,1050.98c-.13,1.18-.75,2.38-1.84,3.59-1.7,1.93-4.08,2.9-7.15,2.9-2.53,0-4.76-.81-6.69-2.44s-2.9-4.28-2.9-7.95c0-3.44.87-6.08,2.62-7.91s4.01-2.75,6.79-2.75c1.65,0,3.14.31,4.47.93s2.42,1.6,3.28,2.94c.78,1.18,1.28,2.55,1.51,4.1.13.91.19,2.22.16,3.94h-13.6c.07,1.99.7,3.39,1.88,4.19.72.5,1.58.75,2.59.75,1.07,0,1.94-.3,2.61-.91.36-.33.69-.78.97-1.37h5.31ZM824.77,1044.89c-.09-1.37-.5-2.42-1.25-3.13s-1.67-1.07-2.78-1.07c-1.2,0-2.14.38-2.8,1.13s-1.08,1.77-1.25,3.06h8.08Z"/>
          <path class="cls-11" d="M843.02,1040.79c-1.76,0-2.97.75-3.63,2.24-.34.79-.51,1.8-.51,3.03v10.76h-5.18v-19.84h5.01v2.9c.67-1.02,1.3-1.76,1.9-2.21,1.07-.8,2.42-1.2,4.07-1.2,2.05,0,3.73.54,5.04,1.61s1.96,2.86,1.96,5.35v13.38h-5.32v-12.09c0-1.05-.14-1.85-.42-2.41-.51-1.02-1.48-1.53-2.92-1.53Z"/>
          <path class="cls-11" d="M884.93,1029.98v26.84h-5.05v-2.75c-.74,1.18-1.59,2.04-2.53,2.57s-2.13.8-3.54.8c-2.32,0-4.28-.94-5.86-2.82s-2.38-4.29-2.38-7.23c0-3.39.78-6.06,2.34-8s3.65-2.92,6.26-2.92c1.2,0,2.27.26,3.21.79s1.7,1.26,2.28,2.2v-9.48h5.27ZM870.93,1047.01c0,1.84.36,3.3,1.09,4.39.72,1.11,1.81,1.66,3.28,1.66s2.59-.55,3.35-1.64,1.15-2.51,1.15-4.25c0-2.43-.61-4.17-1.84-5.21-.75-.63-1.63-.95-2.63-.95-1.52,0-2.63.57-3.35,1.72s-1.07,2.57-1.07,4.28Z"/>
          <path class="cls-11" d="M889.38,1034.26l3.5-5.45h5.8l-5.54,5.45h-3.76ZM889.73,1036.94h5.27v19.87h-5.27v-19.87Z"/>
          <path class="cls-11" d="M900.78,1039.1c1.37-1.75,3.73-2.63,7.07-2.63,2.18,0,4.11.43,5.8,1.29s2.53,2.49,2.53,4.89v9.12c0,.63.01,1.4.04,2.3.04.68.14,1.14.31,1.39s.43.44.77.6v.77h-5.65c-.16-.4-.27-.78-.33-1.13s-.11-.75-.15-1.2c-.72.78-1.54,1.44-2.48,1.99-1.12.64-2.38.97-3.79.97-1.8,0-3.28-.51-4.46-1.54s-1.76-2.48-1.76-4.37c0-2.44.94-4.21,2.83-5.31,1.03-.6,2.55-1.02,4.56-1.28l1.77-.22c.96-.12,1.65-.27,2.06-.46.74-.32,1.11-.81,1.11-1.48,0-.81-.28-1.38-.85-1.69s-1.39-.46-2.49-.46c-1.23,0-2.1.3-2.61.91-.36.45-.61,1.06-.73,1.82h-5.01c.11-1.74.6-3.17,1.46-4.28ZM904.64,1053.06c.49.4,1.08.6,1.79.6,1.12,0,2.15-.33,3.09-.98s1.43-1.85,1.47-3.59v-1.93c-.33.21-.66.37-.99.5s-.79.25-1.38.36l-1.17.22c-1.09.19-1.88.43-2.35.71-.8.47-1.2,1.21-1.2,2.21,0,.89.25,1.53.75,1.91Z"/>
        </g>
      </g>
      <g>
        <rect class="cls-7" x="1289.24" y="979.6" width="370.58" height="134.47" rx="21.61" ry="21.61"/>
        <g>
          <path class="cls-11" d="M1450.28,1028.11c-.13,1.18-.75,2.38-1.84,3.59-1.7,1.93-4.08,2.9-7.15,2.9-2.53,0-4.76-.81-6.69-2.44s-2.9-4.28-2.9-7.95c0-3.44.87-6.08,2.62-7.91s4.01-2.75,6.79-2.75c1.65,0,3.14.31,4.47.93s2.42,1.6,3.28,2.94c.78,1.18,1.28,2.55,1.51,4.1.13.91.19,2.22.16,3.94h-13.6c.07,1.99.7,3.39,1.88,4.19.72.5,1.58.75,2.59.75,1.07,0,1.94-.3,2.61-.91.36-.33.69-.78.97-1.37h5.31ZM1445.14,1022.02c-.09-1.37-.5-2.42-1.25-3.13s-1.67-1.07-2.78-1.07c-1.2,0-2.14.38-2.8,1.13s-1.08,1.77-1.25,3.06h8.08Z"/>
          <path class="cls-11" d="M1472.13,1007.1v26.84h-5.05v-2.75c-.74,1.18-1.59,2.04-2.53,2.57s-2.13.8-3.54.8c-2.32,0-4.28-.94-5.86-2.82s-2.38-4.29-2.38-7.23c0-3.39.78-6.06,2.34-8s3.65-2.92,6.26-2.92c1.2,0,2.27.26,3.21.79s1.7,1.26,2.28,2.2v-9.48h5.27ZM1458.12,1024.13c0,1.84.36,3.3,1.09,4.39.72,1.11,1.81,1.66,3.28,1.66s2.59-.55,3.35-1.64,1.15-2.51,1.15-4.25c0-2.43-.61-4.17-1.84-5.21-.75-.63-1.63-.95-2.63-.95-1.52,0-2.63.57-3.35,1.72s-1.07,2.57-1.07,4.28Z"/>
          <path class="cls-11" d="M1477.6,1016.22c1.37-1.75,3.73-2.63,7.07-2.63,2.18,0,4.11.43,5.8,1.29s2.53,2.49,2.53,4.89v9.12c0,.63.01,1.4.04,2.3.04.68.14,1.14.31,1.39s.43.44.77.6v.77h-5.65c-.16-.4-.27-.78-.33-1.13s-.11-.75-.15-1.2c-.72.78-1.54,1.44-2.48,1.99-1.12.64-2.38.97-3.79.97-1.8,0-3.28-.51-4.46-1.54s-1.76-2.48-1.76-4.37c0-2.44.94-4.21,2.83-5.31,1.03-.6,2.55-1.02,4.56-1.28l1.77-.22c.96-.12,1.65-.27,2.06-.46.74-.32,1.11-.81,1.11-1.48,0-.81-.28-1.38-.85-1.69s-1.39-.46-2.49-.46c-1.23,0-2.1.3-2.61.91-.36.45-.61,1.06-.73,1.82h-5.01c.11-1.74.6-3.17,1.46-4.28ZM1481.46,1030.18c.49.4,1.08.6,1.79.6,1.12,0,2.15-.33,3.09-.98s1.43-1.85,1.47-3.59v-1.93c-.33.21-.66.37-.99.5s-.79.25-1.38.36l-1.17.22c-1.09.19-1.88.43-2.35.71-.8.47-1.2,1.21-1.2,2.21,0,.89.25,1.53.75,1.91Z"/>
          <path class="cls-11" d="M1515.7,1007.1v26.84h-5.05v-2.75c-.74,1.18-1.59,2.04-2.53,2.57s-2.13.8-3.54.8c-2.32,0-4.28-.94-5.86-2.82s-2.38-4.29-2.38-7.23c0-3.39.78-6.06,2.34-8s3.65-2.92,6.26-2.92c1.2,0,2.27.26,3.21.79s1.7,1.26,2.28,2.2v-9.48h5.27ZM1501.7,1024.13c0,1.84.36,3.3,1.09,4.39.72,1.11,1.81,1.66,3.28,1.66s2.59-.55,3.35-1.64,1.15-2.51,1.15-4.25c0-2.43-.61-4.17-1.84-5.21-.75-.63-1.63-.95-2.63-.95-1.52,0-2.63.57-3.35,1.72s-1.07,2.57-1.07,4.28Z"/>
          <path class="cls-11" d="M1355.02,1066h-5.32c-.1-.74-.35-1.41-.75-2.01-.58-.8-1.49-1.2-2.72-1.2-1.75,0-2.95.87-3.59,2.61-.34.92-.51,2.15-.51,3.68s.17,2.63.51,3.52c.62,1.65,1.79,2.48,3.5,2.48,1.22,0,2.08-.33,2.59-.98s.82-1.51.93-2.55h5.31c-.12,1.58-.69,3.08-1.71,4.49-1.63,2.27-4.04,3.41-7.24,3.41s-5.55-.95-7.06-2.84-2.26-4.36-2.26-7.38c0-3.42.83-6.07,2.5-7.97s3.96-2.84,6.89-2.84c2.49,0,4.53.56,6.12,1.68s2.53,3.09,2.82,5.93Z"/>
          <path class="cls-11" d="M1375.16,1061.39c1.68,2.1,2.52,4.59,2.52,7.46s-.84,5.41-2.52,7.48-4.22,3.11-7.64,3.11-5.96-1.04-7.64-3.11-2.52-4.57-2.52-7.48.84-5.35,2.52-7.46,4.22-3.15,7.64-3.15,5.96,1.05,7.64,3.15ZM1367.51,1062.63c-1.52,0-2.69.54-3.51,1.61s-1.23,2.61-1.23,4.6.41,3.53,1.23,4.61,1.99,1.62,3.51,1.62,2.69-.54,3.5-1.62,1.22-2.62,1.22-4.61-.41-3.53-1.22-4.6-1.98-1.61-3.5-1.61Z"/>
          <path class="cls-11" d="M1390.75,1062.72c-1.76,0-2.97.75-3.63,2.24-.34.79-.51,1.8-.51,3.03v10.76h-5.18v-19.84h5.01v2.9c.67-1.02,1.3-1.76,1.9-2.21,1.07-.8,2.42-1.2,4.07-1.2,2.05,0,3.73.54,5.04,1.61s1.96,2.86,1.96,5.35v13.38h-5.32v-12.09c0-1.05-.14-1.85-.42-2.41-.51-1.02-1.48-1.53-2.92-1.53Z"/>
          <path class="cls-11" d="M1413.31,1075.05v3.88l-2.46.09c-2.46.09-4.13-.34-5.03-1.28-.58-.6-.88-1.51-.88-2.75v-12.23h-2.77v-3.7h2.77v-5.54h5.14v5.54h3.23v3.7h-3.23v10.5c0,.81.1,1.32.31,1.52s.84.3,1.9.3c.16,0,.33,0,.5,0s.35-.02.52-.03Z"/>
          <path class="cls-11" d="M1433.65,1072.91c-.13,1.18-.75,2.38-1.84,3.59-1.7,1.93-4.08,2.9-7.15,2.9-2.53,0-4.76-.81-6.69-2.44s-2.9-4.28-2.9-7.95c0-3.44.87-6.08,2.62-7.91s4.01-2.75,6.79-2.75c1.65,0,3.14.31,4.47.93s2.42,1.6,3.28,2.94c.78,1.18,1.28,2.55,1.51,4.1.13.91.19,2.22.16,3.94h-13.6c.07,1.99.7,3.39,1.88,4.19.72.5,1.58.75,2.59.75,1.07,0,1.94-.3,2.61-.91.36-.33.69-.78.97-1.37h5.31ZM1428.51,1066.83c-.09-1.37-.5-2.42-1.25-3.13s-1.67-1.07-2.78-1.07c-1.2,0-2.14.38-2.8,1.13s-1.08,1.77-1.25,3.06h8.08Z"/>
          <path class="cls-11" d="M1448.57,1064.35c-.44-.96-1.29-1.44-2.57-1.44-1.48,0-2.48.48-2.99,1.44-.28.55-.42,1.36-.42,2.44v11.96h-5.27v-19.84h5.05v2.9c.64-1.03,1.25-1.77,1.82-2.21,1.01-.78,2.32-1.17,3.92-1.17,1.52,0,2.75.33,3.68,1,.75.62,1.32,1.42,1.71,2.39.68-1.17,1.53-2.02,2.53-2.57,1.07-.55,2.26-.82,3.57-.82.88,0,1.74.17,2.59.51s1.62.94,2.32,1.79c.56.69.94,1.54,1.13,2.55.12.67.18,1.65.18,2.94l-.04,12.53h-5.32v-12.65c0-.75-.12-1.37-.36-1.86-.46-.92-1.31-1.39-2.55-1.39-1.43,0-2.42.6-2.97,1.79-.28.63-.42,1.39-.42,2.28v11.83h-5.23v-11.83c0-1.18-.12-2.04-.36-2.57Z"/>
          <path class="cls-11" d="M1487.26,1061.01c1.6,1.71,2.41,4.23,2.41,7.55,0,3.5-.79,6.17-2.36,8s-3.6,2.75-6.08,2.75c-1.58,0-2.89-.4-3.94-1.19-.57-.44-1.13-1.08-1.68-1.91v10.36h-5.14v-27.7h4.98v2.94c.56-.86,1.15-1.54,1.79-2.04,1.15-.89,2.53-1.33,4.12-1.33,2.32,0,4.29.86,5.91,2.57ZM1484.3,1068.81c0-1.53-.35-2.89-1.05-4.07s-1.83-1.77-3.4-1.77c-1.88,0-3.18.89-3.88,2.68-.36.95-.55,2.15-.55,3.61,0,2.31.61,3.93,1.84,4.87.73.55,1.59.82,2.59.82,1.45,0,2.55-.56,3.31-1.68s1.14-2.61,1.14-4.47Z"/>
          <path class="cls-11" d="M1509.99,1061.39c1.68,2.1,2.52,4.59,2.52,7.46s-.84,5.41-2.52,7.48-4.22,3.11-7.64,3.11-5.96-1.04-7.64-3.11c-1.68-2.07-2.52-4.57-2.52-7.48s.84-5.35,2.52-7.46,4.22-3.15,7.64-3.15,5.96,1.05,7.64,3.15ZM1502.34,1062.63c-1.52,0-2.69.54-3.51,1.61s-1.23,2.61-1.23,4.6.41,3.53,1.23,4.61,1.99,1.62,3.51,1.62,2.69-.54,3.5-1.62,1.22-2.62,1.22-4.61-.41-3.53-1.22-4.6-1.98-1.61-3.5-1.61Z"/>
          <path class="cls-11" d="M1526.22,1063.67c-2.09,0-3.49.68-4.21,2.04-.4.77-.6,1.94-.6,3.54v9.5h-5.23v-19.87h4.96v3.46c.8-1.32,1.5-2.23,2.1-2.72.97-.81,2.24-1.22,3.79-1.22.1,0,.18,0,.25,0s.22.02.45.03v5.32c-.33-.04-.62-.06-.88-.07s-.46-.02-.62-.02Z"/>
          <path class="cls-11" d="M1531.51,1061.03c1.37-1.75,3.73-2.63,7.07-2.63,2.18,0,4.11.43,5.8,1.29s2.53,2.49,2.53,4.89v9.12c0,.63.01,1.4.04,2.3.04.68.14,1.14.31,1.39s.43.44.77.6v.77h-5.65c-.16-.4-.27-.78-.33-1.13s-.11-.75-.15-1.2c-.72.78-1.54,1.44-2.48,1.99-1.12.64-2.38.97-3.79.97-1.8,0-3.28-.51-4.46-1.54s-1.76-2.48-1.76-4.37c0-2.44.94-4.21,2.83-5.31,1.03-.6,2.55-1.02,4.56-1.28l1.77-.22c.96-.12,1.65-.27,2.06-.46.74-.32,1.11-.81,1.11-1.48,0-.81-.28-1.38-.85-1.69s-1.39-.46-2.49-.46c-1.23,0-2.1.3-2.61.91-.36.45-.61,1.06-.73,1.82h-5.01c.11-1.74.6-3.17,1.46-4.28ZM1535.37,1074.99c.49.4,1.08.6,1.79.6,1.12,0,2.15-.33,3.09-.98s1.43-1.85,1.47-3.59v-1.93c-.33.21-.66.37-.99.5s-.79.25-1.38.36l-1.17.22c-1.09.19-1.88.43-2.35.71-.8.47-1.2,1.21-1.2,2.21,0,.89.25,1.53.75,1.91ZM1535.76,1056.2l3.5-5.45h5.8l-5.54,5.45h-3.76Z"/>
          <path class="cls-11" d="M1560.88,1062.72c-1.76,0-2.97.75-3.63,2.24-.34.79-.51,1.8-.51,3.03v10.76h-5.18v-19.84h5.01v2.9c.67-1.02,1.3-1.76,1.9-2.21,1.07-.8,2.42-1.2,4.07-1.2,2.05,0,3.73.54,5.04,1.61s1.96,2.86,1.96,5.35v13.38h-5.32v-12.09c0-1.05-.14-1.85-.42-2.41-.51-1.02-1.48-1.53-2.92-1.53Z"/>
          <path class="cls-11" d="M1591.35,1072.91c-.13,1.18-.75,2.38-1.84,3.59-1.7,1.93-4.08,2.9-7.15,2.9-2.53,0-4.76-.81-6.69-2.44s-2.9-4.28-2.9-7.95c0-3.44.87-6.08,2.62-7.91s4.01-2.75,6.79-2.75c1.65,0,3.14.31,4.47.93s2.42,1.6,3.28,2.94c.78,1.18,1.28,2.55,1.51,4.1.13.91.19,2.22.16,3.94h-13.6c.07,1.99.7,3.39,1.88,4.19.72.5,1.58.75,2.59.75,1.07,0,1.94-.3,2.61-.91.36-.33.69-.78.97-1.37h5.31ZM1586.21,1066.83c-.09-1.37-.5-2.42-1.25-3.13s-1.67-1.07-2.78-1.07c-1.2,0-2.14.38-2.8,1.13s-1.08,1.77-1.25,3.06h8.08Z"/>
          <path class="cls-11" d="M1595.85,1061.03c1.37-1.75,3.73-2.63,7.07-2.63,2.18,0,4.11.43,5.8,1.29s2.53,2.49,2.53,4.89v9.12c0,.63.01,1.4.04,2.3.04.68.14,1.14.31,1.39s.43.44.77.6v.77h-5.65c-.16-.4-.27-.78-.33-1.13s-.11-.75-.15-1.2c-.72.78-1.54,1.44-2.48,1.99-1.12.64-2.38.97-3.79.97-1.8,0-3.28-.51-4.46-1.54s-1.76-2.48-1.76-4.37c0-2.44.94-4.21,2.83-5.31,1.03-.6,2.55-1.02,4.56-1.28l1.77-.22c.96-.12,1.65-.27,2.06-.46.74-.32,1.11-.81,1.11-1.48,0-.81-.28-1.38-.85-1.69s-1.39-.46-2.49-.46c-1.23,0-2.1.3-2.61.91-.36.45-.61,1.06-.73,1.82h-5.01c.11-1.74.6-3.17,1.46-4.28ZM1599.72,1074.99c.49.4,1.08.6,1.79.6,1.12,0,2.15-.33,3.09-.98s1.43-1.85,1.47-3.59v-1.93c-.33.21-.66.37-.99.5s-.79.25-1.38.36l-1.17.22c-1.09.19-1.88.43-2.35.71-.8.47-1.2,1.21-1.2,2.21,0,.89.25,1.53.75,1.91Z"/>
        </g>
      </g>
      <g>
        <rect class="cls-12" x="132.42" y="631.44" width="339.89" height="101.8" rx="16.36" ry="16.36"/>
        <g>
          <path class="cls-11" d="M224.35,674.21c1.6,1.71,2.41,4.23,2.41,7.55,0,3.5-.79,6.17-2.36,8s-3.6,2.75-6.08,2.75c-1.58,0-2.89-.4-3.94-1.19-.57-.44-1.13-1.08-1.68-1.91v10.36h-5.14v-27.7h4.98v2.94c.56-.86,1.15-1.54,1.79-2.04,1.15-.89,2.53-1.33,4.12-1.33,2.32,0,4.29.86,5.91,2.57ZM221.4,682.02c0-1.53-.35-2.89-1.05-4.07s-1.83-1.77-3.4-1.77c-1.88,0-3.18.89-3.88,2.68-.36.95-.55,2.15-.55,3.61,0,2.31.61,3.93,1.84,4.87.73.55,1.59.82,2.59.82,1.45,0,2.55-.56,3.31-1.68s1.14-2.61,1.14-4.47Z"/>
          <path class="cls-11" d="M240.5,676.87c-2.09,0-3.49.68-4.21,2.04-.4.77-.6,1.94-.6,3.54v9.5h-5.23v-19.87h4.96v3.46c.8-1.32,1.5-2.23,2.1-2.72.97-.81,2.24-1.22,3.79-1.22.1,0,.18,0,.25,0s.22.02.45.03v5.32c-.33-.04-.62-.06-.88-.07s-.46-.02-.62-.02Z"/>
          <path class="cls-11" d="M262.05,686.12c-.13,1.18-.75,2.38-1.84,3.59-1.7,1.93-4.08,2.9-7.15,2.9-2.53,0-4.76-.81-6.69-2.44s-2.9-4.28-2.9-7.95c0-3.44.87-6.08,2.62-7.91s4.01-2.75,6.79-2.75c1.65,0,3.14.31,4.47.93s2.42,1.6,3.28,2.94c.78,1.18,1.28,2.55,1.51,4.1.13.91.19,2.22.16,3.94h-13.6c.07,1.99.7,3.39,1.88,4.19.72.5,1.58.75,2.59.75,1.07,0,1.94-.3,2.61-.91.36-.33.69-.78.97-1.37h5.31ZM256.91,680.03c-.09-1.37-.5-2.42-1.25-3.13s-1.67-1.07-2.78-1.07c-1.2,0-2.14.38-2.8,1.13s-1.08,1.77-1.25,3.06h8.08Z"/>
          <path class="cls-11" d="M283.77,680.28v11.67h-5.31v-12.09c0-1.07-.18-1.93-.55-2.59-.47-.92-1.37-1.39-2.7-1.39s-2.42.46-3.13,1.38-1.07,2.23-1.07,3.93v10.76h-5.18v-26.78h5.18v9.5c.75-1.15,1.63-1.96,2.62-2.42s2.03-.68,3.13-.68c1.23,0,2.34.21,3.35.64s1.83,1.08,2.47,1.95c.55.74.88,1.5,1,2.29s.18,2.06.18,3.84Z"/>
          <path class="cls-11" d="M293.96,664.91v4.8h-5.27v-4.8h5.27ZM293.96,672.08v19.87h-5.27v-19.87h5.27Z"/>
          <path class="cls-11" d="M312.69,672.99c1.56,1,2.45,2.71,2.68,5.14h-5.2c-.07-.67-.26-1.2-.57-1.59-.57-.7-1.54-1.06-2.92-1.06-1.13,0-1.94.18-2.42.53s-.72.77-.72,1.24c0,.6.26,1.03.77,1.29.51.28,2.32.76,5.42,1.44,2.07.49,3.62,1.22,4.65,2.21,1.02,1,1.53,2.24,1.53,3.74,0,1.97-.73,3.58-2.2,4.82s-3.73,1.87-6.79,1.87-5.43-.66-6.92-1.98-2.23-3-2.23-5.04h5.27c.11.92.35,1.58.71,1.97.64.69,1.84,1.04,3.57,1.04,1.02,0,1.83-.15,2.43-.46s.9-.76.9-1.37-.24-1.03-.73-1.33-2.29-.83-5.42-1.57c-2.25-.56-3.83-1.26-4.76-2.1-.92-.83-1.39-2.02-1.39-3.57,0-1.84.72-3.41,2.16-4.73s3.47-1.98,6.08-1.98,4.5.49,6.07,1.48Z"/>
          <path class="cls-11" d="M328.86,688.25v3.88l-2.46.09c-2.46.09-4.13-.34-5.03-1.28-.58-.6-.88-1.51-.88-2.75v-12.23h-2.77v-3.7h2.77v-5.54h5.14v5.54h3.23v3.7h-3.23v10.5c0,.81.1,1.32.31,1.52s.84.3,1.9.3c.16,0,.33,0,.5,0s.35-.02.52-.03Z"/>
          <path class="cls-11" d="M348.77,674.6c1.68,2.1,2.52,4.59,2.52,7.46s-.84,5.41-2.52,7.48-4.22,3.11-7.64,3.11-5.96-1.04-7.64-3.11-2.52-4.57-2.52-7.48.84-5.35,2.52-7.46,4.22-3.15,7.64-3.15,5.96,1.05,7.64,3.15ZM341.11,675.83c-1.52,0-2.69.54-3.51,1.61s-1.23,2.61-1.23,4.6.41,3.53,1.23,4.61,1.99,1.62,3.51,1.62,2.69-.54,3.5-1.62,1.22-2.62,1.22-4.61-.41-3.53-1.22-4.6-1.98-1.61-3.5-1.61Z"/>
          <path class="cls-11" d="M365,676.87c-2.09,0-3.49.68-4.21,2.04-.4.77-.6,1.94-.6,3.54v9.5h-5.23v-19.87h4.96v3.46c.8-1.32,1.5-2.23,2.1-2.72.97-.81,2.24-1.22,3.79-1.22.1,0,.18,0,.25,0s.22.02.45.03v5.32c-.33-.04-.62-.06-.88-.07s-.46-.02-.62-.02Z"/>
          <path class="cls-11" d="M374.88,664.91v4.8h-5.27v-4.8h5.27ZM374.88,672.08v19.87h-5.27v-19.87h5.27Z"/>
          <path class="cls-11" d="M380.66,674.23c1.37-1.75,3.73-2.63,7.07-2.63,2.18,0,4.11.43,5.8,1.29s2.53,2.49,2.53,4.89v9.12c0,.63.01,1.4.04,2.3.04.68.14,1.14.31,1.39s.43.44.77.6v.77h-5.65c-.16-.4-.27-.78-.33-1.13s-.11-.75-.15-1.2c-.72.78-1.54,1.44-2.48,1.99-1.12.64-2.38.97-3.79.97-1.8,0-3.28-.51-4.46-1.54s-1.76-2.48-1.76-4.37c0-2.44.94-4.21,2.83-5.31,1.03-.6,2.55-1.02,4.56-1.28l1.77-.22c.96-.12,1.65-.27,2.06-.46.74-.32,1.11-.81,1.11-1.48,0-.81-.28-1.38-.85-1.69s-1.39-.46-2.49-.46c-1.23,0-2.1.3-2.61.91-.36.45-.61,1.06-.73,1.82h-5.01c.11-1.74.6-3.17,1.46-4.28ZM384.52,688.2c.49.4,1.08.6,1.79.6,1.12,0,2.15-.33,3.09-.98s1.43-1.85,1.47-3.59v-1.93c-.33.21-.66.37-.99.5s-.79.25-1.38.36l-1.17.22c-1.09.19-1.88.43-2.35.71-.8.47-1.2,1.21-1.2,2.21,0,.89.25,1.53.75,1.91Z"/>
        </g>
      </g>
      <g>
        <rect class="cls-14" x="1806.58" y="631.44" width="339.89" height="101.8" rx="16.36" ry="16.36"/>
        <g>
          <path class="cls-11" d="M1868.46,689.58c-.13,1.18-.75,2.38-1.84,3.59-1.7,1.93-4.08,2.9-7.15,2.9-2.53,0-4.76-.81-6.69-2.44s-2.9-4.28-2.9-7.95c0-3.44.87-6.08,2.62-7.91s4.01-2.75,6.79-2.75c1.65,0,3.14.31,4.47.93s2.42,1.6,3.28,2.94c.78,1.18,1.28,2.55,1.51,4.1.13.91.19,2.22.16,3.94h-13.6c.07,1.99.7,3.39,1.88,4.19.72.5,1.58.75,2.59.75,1.07,0,1.94-.3,2.61-.91.36-.33.69-.78.97-1.37h5.31ZM1863.32,683.49c-.09-1.37-.5-2.42-1.25-3.13s-1.67-1.07-2.78-1.07c-1.2,0-2.14.38-2.8,1.13s-1.08,1.77-1.25,3.06h8.08Z"/>
          <path class="cls-11" d="M1890.3,668.58v26.84h-5.05v-2.75c-.74,1.18-1.59,2.04-2.53,2.57s-2.13.8-3.54.8c-2.32,0-4.28-.94-5.86-2.82s-2.38-4.29-2.38-7.23c0-3.39.78-6.06,2.34-8s3.65-2.92,6.26-2.92c1.2,0,2.27.26,3.21.79s1.7,1.26,2.28,2.2v-9.48h5.27ZM1876.3,685.61c0,1.84.36,3.3,1.09,4.39.72,1.11,1.81,1.66,3.28,1.66s2.59-.55,3.35-1.64,1.15-2.51,1.15-4.25c0-2.43-.61-4.17-1.84-5.21-.75-.63-1.63-.95-2.63-.95-1.52,0-2.63.57-3.35,1.72s-1.07,2.57-1.07,4.28Z"/>
          <path class="cls-11" d="M1895.77,677.69c1.37-1.75,3.73-2.63,7.07-2.63,2.18,0,4.11.43,5.8,1.29s2.53,2.49,2.53,4.89v9.12c0,.63.01,1.4.04,2.3.04.68.14,1.14.31,1.39s.43.44.77.6v.77h-5.65c-.16-.4-.27-.78-.33-1.13s-.11-.75-.15-1.2c-.72.78-1.54,1.44-2.48,1.99-1.12.64-2.38.97-3.79.97-1.8,0-3.28-.51-4.46-1.54s-1.76-2.48-1.76-4.37c0-2.44.94-4.21,2.83-5.31,1.03-.6,2.55-1.02,4.56-1.28l1.77-.22c.96-.12,1.65-.27,2.06-.46.74-.32,1.11-.81,1.11-1.48,0-.81-.28-1.38-.85-1.69s-1.39-.46-2.49-.46c-1.23,0-2.1.3-2.61.91-.36.45-.61,1.06-.73,1.82h-5.01c.11-1.74.6-3.17,1.46-4.28ZM1899.64,691.66c.49.4,1.08.6,1.79.6,1.12,0,2.15-.33,3.09-.98s1.43-1.85,1.47-3.59v-1.93c-.33.21-.66.37-.99.5s-.79.25-1.38.36l-1.17.22c-1.09.19-1.88.43-2.35.71-.8.47-1.2,1.21-1.2,2.21,0,.89.25,1.53.75,1.91Z"/>
          <path class="cls-11" d="M1933.88,668.58v26.84h-5.05v-2.75c-.74,1.18-1.59,2.04-2.53,2.57s-2.13.8-3.54.8c-2.32,0-4.28-.94-5.86-2.82s-2.38-4.29-2.38-7.23c0-3.39.78-6.06,2.34-8s3.65-2.92,6.26-2.92c1.2,0,2.27.26,3.21.79s1.7,1.26,2.28,2.2v-9.48h5.27ZM1919.87,685.61c0,1.84.36,3.3,1.09,4.39.72,1.11,1.81,1.66,3.28,1.66s2.59-.55,3.35-1.64,1.15-2.51,1.15-4.25c0-2.43-.61-4.17-1.84-5.21-.75-.63-1.63-.95-2.63-.95-1.52,0-2.63.57-3.35,1.72s-1.07,2.57-1.07,4.28Z"/>
          <path class="cls-11" d="M1960.13,681.01c-.44-.96-1.29-1.44-2.57-1.44-1.48,0-2.48.48-2.99,1.44-.28.55-.42,1.36-.42,2.44v11.96h-5.27v-19.84h5.05v2.9c.64-1.03,1.25-1.77,1.82-2.21,1.01-.78,2.32-1.17,3.92-1.17,1.52,0,2.75.33,3.68,1,.75.62,1.32,1.42,1.71,2.39.68-1.17,1.53-2.02,2.53-2.57,1.07-.55,2.26-.82,3.57-.82.88,0,1.74.17,2.59.51s1.62.94,2.32,1.79c.56.69.94,1.54,1.13,2.55.12.67.18,1.65.18,2.94l-.04,12.53h-5.32v-12.65c0-.75-.12-1.37-.36-1.86-.46-.92-1.31-1.39-2.55-1.39-1.43,0-2.42.6-2.97,1.79-.28.63-.42,1.39-.42,2.28v11.83h-5.23v-11.83c0-1.18-.12-2.04-.36-2.57Z"/>
          <path class="cls-11" d="M1998.75,678.06c1.68,2.1,2.52,4.59,2.52,7.46s-.84,5.41-2.52,7.48-4.22,3.11-7.64,3.11-5.96-1.04-7.64-3.11-2.52-4.57-2.52-7.48.84-5.35,2.52-7.46,4.22-3.15,7.64-3.15,5.96,1.05,7.64,3.15ZM1991.09,679.3c-1.52,0-2.69.54-3.51,1.61s-1.23,2.61-1.23,4.6.41,3.53,1.23,4.61,1.99,1.62,3.51,1.62,2.69-.54,3.5-1.62,1.22-2.62,1.22-4.61-.41-3.53-1.22-4.6-1.98-1.61-3.5-1.61Z"/>
          <path class="cls-11" d="M2023.07,668.58v26.84h-5.05v-2.75c-.74,1.18-1.59,2.04-2.53,2.57s-2.13.8-3.54.8c-2.32,0-4.28-.94-5.86-2.82s-2.38-4.29-2.38-7.23c0-3.39.78-6.06,2.34-8s3.65-2.92,6.26-2.92c1.2,0,2.27.26,3.21.79s1.7,1.26,2.28,2.2v-9.48h5.27ZM2009.07,685.61c0,1.84.36,3.3,1.09,4.39.72,1.11,1.81,1.66,3.28,1.66s2.59-.55,3.35-1.64,1.15-2.51,1.15-4.25c0-2.43-.61-4.17-1.84-5.21-.75-.63-1.63-.95-2.63-.95-1.52,0-2.63.57-3.35,1.72s-1.07,2.57-1.07,4.28Z"/>
          <path class="cls-11" d="M2044.8,689.58c-.13,1.18-.75,2.38-1.84,3.59-1.7,1.93-4.08,2.9-7.15,2.9-2.53,0-4.76-.81-6.69-2.44s-2.9-4.28-2.9-7.95c0-3.44.87-6.08,2.62-7.91s4.01-2.75,6.79-2.75c1.65,0,3.14.31,4.47.93s2.42,1.6,3.28,2.94c.78,1.18,1.28,2.55,1.51,4.1.13.91.19,2.22.16,3.94h-13.6c.07,1.99.7,3.39,1.88,4.19.72.5,1.58.75,2.59.75,1.07,0,1.94-.3,2.61-.91.36-.33.69-.78.97-1.37h5.31ZM2039.66,683.49c-.09-1.37-.5-2.42-1.25-3.13s-1.67-1.07-2.78-1.07c-1.2,0-2.14.38-2.8,1.13s-1.08,1.77-1.25,3.06h8.08Z"/>
          <path class="cls-11" d="M2058.55,680.34c-2.09,0-3.49.68-4.21,2.04-.4.77-.6,1.94-.6,3.54v9.5h-5.23v-19.87h4.96v3.46c.8-1.32,1.5-2.23,2.1-2.72.97-.81,2.24-1.22,3.79-1.22.1,0,.18,0,.25,0s.22.02.45.03v5.32c-.33-.04-.62-.06-.88-.07s-.46-.02-.62-.02Z"/>
          <path class="cls-11" d="M2072.44,679.39c-1.76,0-2.97.75-3.63,2.24-.34.79-.51,1.8-.51,3.03v10.76h-5.18v-19.84h5.01v2.9c.67-1.02,1.3-1.76,1.9-2.21,1.07-.8,2.42-1.2,4.07-1.2,2.05,0,3.73.54,5.04,1.61s1.96,2.86,1.96,5.35v13.38h-5.32v-12.09c0-1.05-.14-1.85-.42-2.41-.51-1.02-1.48-1.53-2.92-1.53Z"/>
          <path class="cls-11" d="M2086.65,677.69c1.37-1.75,3.73-2.63,7.07-2.63,2.18,0,4.11.43,5.8,1.29s2.53,2.49,2.53,4.89v9.12c0,.63.01,1.4.04,2.3.04.68.14,1.14.31,1.39s.43.44.77.6v.77h-5.65c-.16-.4-.27-.78-.33-1.13s-.11-.75-.15-1.2c-.72.78-1.54,1.44-2.48,1.99-1.12.64-2.38.97-3.79.97-1.8,0-3.28-.51-4.46-1.54s-1.76-2.48-1.76-4.37c0-2.44.94-4.21,2.83-5.31,1.03-.6,2.55-1.02,4.56-1.28l1.77-.22c.96-.12,1.65-.27,2.06-.46.74-.32,1.11-.81,1.11-1.48,0-.81-.28-1.38-.85-1.69s-1.39-.46-2.49-.46c-1.23,0-2.1.3-2.61.91-.36.45-.61,1.06-.73,1.82h-5.01c.11-1.74.6-3.17,1.46-4.28ZM2090.51,691.66c.49.4,1.08.6,1.79.6,1.12,0,2.15-.33,3.09-.98s1.43-1.85,1.47-3.59v-1.93c-.33.21-.66.37-.99.5s-.79.25-1.38.36l-1.17.22c-1.09.19-1.88.43-2.35.71-.8.47-1.2,1.21-1.2,2.21,0,.89.25,1.53.75,1.91Z"/>
        </g>
      </g>
      <text class="cls-6" transform="translate(362.15 842.75)"><tspan x="0" y="0">Shanidar IV / Flores</tspan><tspan class="cls-13" x="0" y="59.75">T</tspan><tspan x="14.29" y="59.75">ierra como sepultura</tspan><tspan x="0" y="89.62">natural</tspan></text>
      <circle class="cls-5" cx="348.61" cy="832.66" r="2.12"/>
      <circle class="cls-5" cx="348.61" cy="893.21" r="2.12"/>
      <text class="cls-6" transform="translate(1682.96 842.75)"><tspan x="0" y="0">Luto regulado</tspan><tspan x="0" y="59.75">Normas sociales y</tspan><tspan x="0" y="89.62">control del gesto</tspan></text>
      <circle class="cls-5" cx="1669.42" cy="832.66" r="2.12"/>
      <circle class="cls-5" cx="1669.42" cy="893.21" r="2.12"/>
      <text class="cls-6" transform="translate(742.57 541.45)"><tspan x="0" y="0">Cuerpo y rituales complejos</tspan><tspan x="0" y="59.75">Preparación, procesiones</tspan><tspan class="cls-13" x="0" y="119.49">T</tspan><tspan class="cls-10" x="14.29" y="119.49">rascendencia material</tspan></text>
      <circle class="cls-5" cx="729.03" cy="531.37" r="2.12"/>
      <circle class="cls-5" cx="729.03" cy="591.92" r="2.12"/>
      <circle class="cls-5" cx="729.03" cy="651.54" r="2.12"/>
      <text class="cls-6" transform="translate(742.57 1166.45)"><tspan x="0" y="0">Retorno simbólico a</tspan><tspan x="0" y="29.87">la tierra</tspan><tspan x="0" y="89.62">Búsqueda de </tspan><tspan x="0" y="119.49">contención natural</tspan></text>
      <circle class="cls-5" cx="729.03" cy="1156.36" r="2.12"/>
      <circle class="cls-5" cx="729.03" cy="1247.19" r="2.12"/>
      <text class="cls-6" transform="translate(1394.82 541.45)"><tspan x="0" y="0">Muerte cristiana</tspan><tspan x="0" y="59.75">Alma, salvación,</tspan><tspan x="0" y="89.62">espiritualización</tspan></text>
      <circle class="cls-5" cx="1381.28" cy="531.37" r="2.12"/>
      <circle class="cls-5" cx="1381.28" cy="591.92" r="2.12"/>
      <text class="cls-6" transform="translate(1394.82 1198.85)"><tspan x="0" y="0">Secularización</tspan><tspan x="0" y="59.75">Rituales divididos</tspan><tspan x="0" y="119.49">Privatización del dolor</tspan></text>
      <circle class="cls-5" cx="1381.28" cy="1188.76" r="2.12"/>
      <circle class="cls-5" cx="1381.28" cy="1249.31" r="2.12"/>
      <circle class="cls-5" cx="1381.28" cy="1309.21" r="2.12"/>
    </g>
    <g id="bAk5UX.tif">
      <path d="M232.06,780.35c12.63-.14,23.24,9.6,24.69,22.06,1.61,13.85-8.47,26.4-22.35,27.88-6.2.66-11.07-2.52-16.51-2.59-1.1-.01-2.24.17-3.14.84-17.66,18.3-36.53,35.53-54.03,53.96-1.07,1.12-5.55,5.68-5.88,6.63-.11.32-.27,1.35-.29,1.71-.13,4.06,2.66,9.68,2.77,14.14.21,8.4-4.98,17.45-12.14,21.67-16.87,9.94-37.58-1.93-37.91-21.22-5.99-.41-11.59-2.21-16.17-6.14-18.32-15.66-5.95-45.75,18.33-43.91,5.18.39,11.54,4.56,15.93.86l58.36-58.45c.36-.52.72-1.08.83-1.72.77-4.21-2.19-10.21-2.5-14.7-.48-7.01,3.16-15.17,8.4-19.75,16.45-14.37,41.4-2.66,41.63,18.75ZM189.27,842.13c6.37-5.92,12.27-13.19,18.77-18.88,2.54-2.22,5.04-3.7,8.52-3.98,8.93-.73,13.64,5.82,23.37.63,13.27-7.1,10.53-27.55-4.16-30.9-3.96-.9-7.11.36-10.25-3.4-2.27-2.72-1.5-5.11-2.06-8.18-2.75-15.21-23.09-18.91-30.86-5.41-6.76,11.76,6.53,20.6-3.61,32.49-6.5,7.62-15.25,14.27-22.04,21.73-12.07,11.39-23.49,25.42-35.94,36.25-10.88,9.47-19.8-2.88-31.04,2.78-13.48,6.8-11.74,27.06,2.62,31.01,3.38.93,6.63.05,9.64,2.3,4.46,3.33,2.8,8.36,4.65,12.97,5.99,14.95,28.04,13.1,31.47-2.46,2.16-9.79-6.75-17.78,1.26-27.16,11.78-13.79,27.65-25.97,39.63-39.8Z"/>
    </g>
    <g id="rU6ouP.tif">
      <g>
        <path d="M504.61,315.44c.97-.25,6.23-2.11,6.46-2.77.32-1.07-1.71-4.98-2.42-5.43-.23-.14-1.38-.43-1.74-.49-2.12-.41-5.1-.53-7.17.08-1.39.42-2.64,1.37-4.02,1.86-1.32.46-2.83,1.12-3.96.03-1.71-1.65.46-3.51,2.3-3.33v-74.37c-.05-.23-1.2.04-1.41-1.46-.42-3.01.56-7.66-.1-10.44-.15-.61-1.31-1.8-1.81-2.35-5.23-5.69-11.52-10.85-16.68-16.56-.71-.79-.9-1.5-.58-2.56l25.42-25.26c.91-.29,1.41.05,2.11.56,1.06.76,3.12,3.05,4.19,4.11,6.69,6.59,13.18,13.42,19.97,19.97.88,1.18.88,1.97-.12,3.09l-18.33,18.41-.12,10.83c-.27,1.62-1.89,1.54-2.02,2.24v71.26c1.06.08,2.29.22,3.33.42,2.36.47,1.56,1.16,3.81-.64,3.59-2.87,4.39-7.3,8.61-10.3,3.91-2.77,9.23-2.64,11.66-7.6.77-1.57.26-1.25.18-2.49-.19-3.01.7-6.38,1.72-9.2.45-1.27,1.74-3.47,1.9-4.58,1.2-7.92-3.14-17.03,4.06-23.3,6.08-5.3,12.52-3.42,19.21-6.34,2.32-1.96,4.98-4.96,4.49-8.25-.16-1.06-2.19-1.57-3.13-2.14-3.41-2.07-6.11-4.71-10.52-4.05-.66.1-1.41.7-2.06.79-2.47.34-3.05-2.68-.73-3.58,7.59-2.97,13.15,2.87,19.3,6.12,3.54,3.04,4.68,9.33,4.86,13.79.08,2.01-1.1,3.97-3.1,2.34-.83-.68-.58-4.86-.77-6.18-.12-.87-.52-1.88-.69-2.75-.94,1.19-1.54,2.59-2.47,3.8-1.74,2.23-3.44,3.93-4.76,6.61-1.46,2.96-2.52,6.78-2.11,10.08.24.34,2.55.32,2.96-.1.46-.47,1.78-5.28,2.39-6.53.41-.85,1.02-2.35,2-2.46,1.14-.13,2.03.53,2.1,1.69.08,1.35-1.56,2.69-1.41,4.13.47.67,6.87.69,7.99.63.5-.03,2.68-.22,2.74-.51l-.65-1.88c-.56-.58-6.8,1.2-6.66-2.17.11-2.75,4.59-.83,5.05-1.55.08-1.42-.67-2.8-.94-4.18-1.13-5.93-1.33-13.47,3-18.19,2.1-2.3,6.56-3.43,6.5-7.3-.05-2.91-4.88-8.51-7.67-8.97-4.08-.68-10.56-.39-14.44,1.07-1.21.45-2.93,1.82-3.84,2.04-2.19.51-3.8.17-6.23,1.27-5.91,2.66-6.18,7.42-6.16,13.12,0,1.21.61,2.77-1.36,3.1-1.83.31-2.17-2.44-2.28-3.72-.61-7.66,2.59-13.82,9.97-16.38,1.89-.65,3.81-.49,5.43-1.06,1.53-.53,3.14-1.66,4.86-2.24.71-.24,2.03.03,2.03-1.17l-1.57-7.28c.14-1.67,1.57-1.31,1.88-1.97.6-5.42,2.38-10.11,6.58-13.69,2.72-2.31,7.09-3.25,7.3-7.5.02-.43-.27-.78-.17-1.37.41-2.23,3.75-4.31,5.93-3.99,2.75.41,5.09,5.54,6,7.89,2.53-1.61,3.71,1.77,4.35,3.65,2.34,6.85,1.89,14.75-.04,21.66-.58,2.09-1.5,4.11-2.08,6.2,1.99.86,4.06,1.55,6,2.52,17.08,8.56,22.83,27.18,19.52,45.33-.47,2.56-3.22,2.58-3.65,0,2.09-12.51.67-26.59-8.7-35.88-5.53-5.49-12.81-8.52-20.38-10.05l-.91.32c1.08,1.65,2.85,1.41,4.55,1.94,10.39,3.23,17.1,13.14,20.28,23.1.33,1.03,1.41,4.84,1.24,5.68-.32,1.55-2.33,1.66-3.17.5-2.36-8.72-6.45-18.52-14.36-23.55-1.18-.75-3.66-2.13-5-2.3-.41-.05-.26.01-.3.3-.05.34-.06,1.73.09,1.94,6.95,2.17,10.78,9.02,12.22,15.75.18.84.66,3.08.67,3.81.03,1.43-1.16,2.43-2.53,1.91-1.51-.57-1.12-2.72-1.38-3.9-1.04-4.86-3.58-11.09-8.29-13.4-.74-.36-1.65-1-2.2-.23-.85,1.18.65,1.63,1.41,2.5,2.29,2.6,4.31,6.33,4.46,9.88.05,1.09.07,2.06-1.16,2.28-2.66.47-2.37-2.8-2.95-4.66-.48-1.53-1.35-3.29-2.37-4.52-1.91-2.31-3.3-3.1-5.27-.2,2.55,4.09,4.96,8.45,5.27,13.39.09,1.52.42,4.97-1.72,4.99-2.49.02-1.59-2.91-1.73-4.58-.29-3.48-1.91-6.77-3.45-9.83-.27,0-.68.1-.8.35-.15.33-.58,3.24-.62,3.79-.29,4.03,1.33,10.08,2.75,13.89.83,2.21,1.98,4.32,2.86,6.51,1.32.5,2.72.68,4.13.59.11-2.87-.54-5.76-.42-8.63.08-1.9.84-8.42,3.16-8.81,1.02-.17,4.33,1.69,5.57,2.13,2.47.87,3.33.8,5.78.9,7.99.34,10.97,6.96,11.46,14.1.51,7.52.17,15.8,0,23.32-.05,2.03-.33,4.58-.21,6.49.11,1.78.88,3.56,1.17,5.31,1.23,7.28.71,15.35-.38,22.63-.77,5.19-2.47,10.24-1.78,15.61.21,1.63,1.43,3.77,1.75,5.55.35,1.93.4,4.4-.09,6.3-.16.64-1.87,4.72-1.69,4.9,1.75.34,4.59-1.66,5.06,1.13.16.99.14,4.42.01,5.47-.38,3.26-4.88.67-6.87,1.34-.05.36-.23.73-.22,1.09,0,1.24.58,5.81,1.13,6.78.23.4.75.64.98,1.05.78,1.35-.17,2.5-1.59,2.63-2.46.23-7.49.23-9.95,0-1.35-.13-2.4-.83-2.12-2.33.11-.59.81-.86,1.1-1.34.59-.98,1.08-5.47,1.14-6.79.01-.35-.08-.67-.19-.99-1.81-.87-6.24,1.72-6.87-1.07-.16-.7-.15-5.52.05-6.15.71-2.31,3.42-.43,4.98-.8.34-.32-1.92-3.09-.54-4.6.97-1.06,1.87-.1,2.43-.11.4,0,.98-.47,1.47-.55.87-.14,1.92.07,2.82-.01,1.81-.17,3.62-.52,5.45-.6.18-.06.33-1.26.34-1.52.05-1.35-.64-5.47-1.42-6.5-.96-1.26-5.03-1.55-6.48-1-.87.33-2.82,3.36-3.01,4.29-.3,1.45.72,4.44-1.38,4.72-1.35.18-2.09-1.27-2.27-2.38-.36-2.2.61-4.62,1.77-6.44.46-.72,1.95-2.22,2.12-2.74.26-.78.18-3.97.12-4.97-.2-3.23-1.32-5.73-1.98-8.77-1.15-5.25-1.42-11.23-.64-16.55.67-4.57,2.46-8.12,2.41-12.99-.05-4.27-1.81-7.97-2.74-12.06-.38-1.66-.56-3.4-.91-5.07-.37-.28-3.94,7.55-4.29,8.17-2.06,3.64-4.83,6.1-5.04,10.57-.19,4.11,1.47,4.21,3.42,7.14,4.17,6.25,5.33,13.47,3.84,20.8-1.07,5.27-3.9,16.08-1.4,20.97.61,1.2,2.19,2,1.16,3.53-1.15,1.7-2.83.4-3.69-.8-.41-.57-1.1-2.4-1.3-2.55-.54-.41-2.01-.53-2.66-.78-4.83-1.89-9.69-5.75-12.93-9.77-.66-.82-2.22-2.68-2.25-3.65-.04-1.33,1.22-2.02,2.43-1.6.73.26,3.4,3.95,4.26,4.86,1.89,1.99,4.12,3.89,6.53,5.24.6.34,3.35,1.82,3.83,1.47.43-1.71.09-3.7.18-5.5.05-.98.91-3.48.09-4.13-.53-.41-1.98-.77-2.69-1.16-6.06-3.29-10.79-8.41-13.75-14.63-.33-.7-1.21-3.44-1.57-3.71-.67-.5-7.85,1.83-9.22,1.65-.48,2.56.04,5.09.37,7.62,1.99,15.05,8.82,29.54,25.11,32.67.93.18,1.85-.23,2.61.53.85.85.79,2.34-.39,2.82-.5.2-2.99.01-3.65-.1-1.92-.32-3.9-1.49-5.83-1.57v4.56c0,1.37,1.72,4.98,2.55,6.17.66.96,1.82,1.83,2.35,2.92,1.58,3.22.34,8.07.36,11.6.03,5.57,1.05,12.28,2.09,17.78,1.17,6.16,3.74,12.75,2.57,19.1-.76,4.13-10.7,9.55-14.53,10.2-1.3.22-5.82-.11-6.26,1.46-.4,1.44,1.86.49,2.26.42,1.17-.18,2.94.51,4.25.59,3.8.23,5.63-1.63,9.14-2.21,2.87-.47,4.09.39,6.67.59,1.63.13,7.01-.02,8.28-.84,1.96-1.25.03-6.4-.68-8.19-1.52-3.83-2.91-6.16-3.24-10.54-.41-5.42.18-8.47,1.16-13.63,1-5.25,1.75-10.56.77-15.89.16-1.54,2.08-2.14,3.08-1.13.79.8,1.15,6.45,1.08,7.76-.48,9.32-4.24,16.29-2.01,26.12.96,4.25,3.79,7.77,4.23,12.39.12,1.29-.78,3.68.9,3.56h45.62c2.09.17,2.7,2.36.7,3.32l-51.99.1c-3.69.81-6.94.79-10.64.12-1.07-.19-1.45-.61-2.74-.52-2.11.15-4.21,1.75-5.96,2.15-3.16.73-4.76.15-7.69,0-1.83-.09-3.46.57-5.16-.56-3-2-1.82-6.19,1.08-7.57.87-.41,3.02-.99,3.97-1.09,2.8-.3,3.28-.07,6-1.3,2.35-1.06,7.56-3.82,8.22-6.38,1.18-4.58-2.04-14.24-2.94-19.26-1.19-6.69-2.1-14.24-1.68-21.04.09-1.4.56-2.15.36-3.79-.27-2.16-.94-2.14-1.96-3.56-1.93-2.67-3.57-5.93-3.86-9.27-.17-2.03.46-4.37-.53-6.2-.37-.08-5.07,1.52-5.44,1.85-.44.39-1.67,2.43-2.01,3.06-1.43,2.59-4.54,11.13-4.38,13.86.04.72.37,1.47.41,2.23.55,9.99-2.37,17.36-8.32,25.14-.64.84-1.74,1.7-2.31,2.55-2.15,3.2-4.24,10.84-4.38,14.68-.16,4.27,3.75,11.04-1.63,14.19-2.52,1.48-7.92,1.26-10.77.66-1.98-.42-3.15-1.17-5.33-.95-2.54.26-4.82,1.82-7.5,1.84-1.79.01-3.7-.55-5.46-.84h-54.95c-1.22-.09-2.17-1.41-1.53-2.54.15-.27,1.07-.9,1.33-.9h33.04l.3-.3v-104.81c0-.09.55-1.14.67-1.26,1.15-1.08,3.02-.09,2.98,1.46l.1,104.51c.35.71,2.44.4,3.14.2v-107.35c0-2.45,3.65-2.45,3.65.2v4.16ZM584.19,185.6c.85-1,1.51-1.68,1.68-3.08.23-1.87-.38-5.01-1.12-6.75-.36-.85-2.12-4.08-3.12-3.79-1.29.37-.87.93-1.03,1.82-1.44,8.08-6.26,6.88-10.42,11.88-1.94,2.33-3.14,5.51-3.34,8.52.19.19,2.56-.42,3-.54,4.96-1.35,10.97-4.08,14.35-8.05ZM496.3,218.23v9.22h6.69v-9.63c0-.07.38-.89.48-1.04l17.46-17.5.47-.89-21.96-21.64-21.61,21.61.31.94,17.25,17.21c.28.37.84,1.31.91,1.73ZM590.36,183.46c-.48-.11-.33.09-.45.27-.56.8-.99,1.78-1.61,2.64-5.29,7.26-14.25,10.51-22.86,11.91-.27.28.75,5.24,1.1,5.67.33.4,2.72.15,3.45.2,2.18.16,4.74.33,6.87.63,1.36.19,10.2,2.3,10.64,1.98.72-2.14,1.61-4.23,2.19-6.42,1.21-4.53,1.69-9.47,1.27-14.13-.08-.94-.47-1.82-.61-2.74ZM500.97,231.3c-.52-.26-3.24-.44-3.24.3v71.57c0,.07.25.31.21.5.98-.39,2.25-.21,3.03-.91v-71.46ZM593.58,244.09c-.04-.06-1.09-.22-1.39-.33-.61-.22-2.34-1.18-2.82-.88-.39.91-1.01,3.89-.54,4.64.18.28.28.18.51.1.37-.13,4.09-2.56,4.21-2.78.08-.15.1-.66.03-.75ZM556.51,243.47c-6.02,1.16-13.46.91-16.5,7.32-1.23,2.59-.67,5.69-.63,8.49.07.13.18.23.31.3.62.32,5.44.74,6.39.73.3,0,2.01-.19,2.19-.25.4-.13.65-1.22,1.46-1.38,2.85-.56,2.28,3.25,2.55,4.94.12.74.84,4.85,1.31,4.97.5-.1,1.67-.56,1.71-1.1.05-.67-.38-2.22-.42-3.03-.07-1.41.36-3.77.2-4.86-.12-.89-1.05-1.15-1.2-2.06-.28-1.75.22-4.02-.05-5.82-.31-1.06-3.69-1.41-3.2-3.89.39-1.98,3.18-.87,4.25-.11l1.62-4.26ZM604.63,247.23c-1.46-1.72-3.57-2.39-5.82-2.1-1.36,1.06-2.64,2.26-4.05,3.25-.99.69-5.24,2.94-5.63,3.49-1.29,1.8,2.8,8.56-2.29,8.05l-.3.3c-.33,2.33-.76,4.76-.25,7.08.82-.17,2.86.89,3.37.52l3.63-8.14c.41-1.17,2.27-1.38,2.96-.45.21.28.3.99.6,1.17.37.23,2.88-.22,3.49-.37,2.24-.55,4.63-1.82,6.8-2.62.65-.55-.17-5.27-.45-6.25-.39-1.38-1.13-2.84-2.05-3.93ZM565.22,260.6v4.66c.84.7,2.14.12,3.13.09,2.48-.07,4.94.11,7.41.21.08-1.69-.28-3.28-.21-4.98.05-1.16.63-2.91.63-3.85,0-1.15-1.6-.33-2.53-.29-2.28.12-4.66.07-6.88-.38-.27.06-.68.93-.79,1.22-.28.75-.67,2.52-.75,3.31ZM583.05,259.29l-3.16-.61c-.67.02-.9,2.53-.9,3.12,0,.5.57,4.12.81,4.28.5.02,2.38.44,2.62.06l.63-6.86ZM561.98,259.28h-2.94c-1.21.72-.58,7.53,0,7.51l2.52-.62c.08-2.31-.23-4.64.42-6.88ZM607.59,261.31l-10.25,3.04c-.29.25.05,2.6.13,3.12.15.85.35,1.71.61,2.53,2.58.2,5.4-.52,7.72-1.65.33-.16,1.62-.87,1.78-1.06.7-.84-.3-4.73,0-5.98ZM539.28,263.64v5.07c1.4,1.36,3.47,2.19,5.4,2.51,1.37.23,3.32.82,3.68-.93.2-1.01.68-4.29.67-5.23,0-.32-.05-.73-.24-1-.42-.59-3.45-.26-4.35-.31-1.36-.07-3.13-.42-4.46-.42-.25,0-.62.06-.7.31ZM587.93,271.25c-.73-.15-1.45-.4-2.18-.56-8.37-1.75-19.88-2.73-28.02.05-.63.21-3.27,1.22-3.36,1.82-.03.18.12.93.17,1.17.66,2.8,1.99,7.28,3.03,9.94,1.2,3.05,8.98,6.41,12.02,6.03,1.63-.2,6.79-3.91,8.3-5.08,3.87-3,6.13-5.87,8.49-10.16.23-.41,1.67-3.04,1.55-3.21ZM600.33,317.22c.62.44,1.27-.09,1.91-.14,1.52-.11,3.31.25,4.64.99.23-.13.23-.3.29-.51.76-2.35.97-5.78,1.25-8.28.59-5.23.95-10.72.36-16.01-.38-3.39-1.77-6.48-1.59-9.96.1-2.03.54-4.22.61-6.28.03-.77.09-5.36-.21-5.58-1.39.57-2.96,1.41-4.41,1.77-1.1.27-2.84.2-3.77.49-.27.08-.3.23-.34.48-.17.95,1.3,4.28,1.58,5.52,1.91,8.66-1.72,13.99-2.19,22.04-.3,5.2.49,10.5,1.87,15.47ZM547.39,275.1c-2.27-.15-4.78-.48-6.89-1.32-.63-.25-2.04-1.36-2.55-.93-.75.62-2.08,6.26-2.12,7.41-.13,3.53.85,3.98-1.37,7.35-2.45,3.74-5.3,4.57-9.17,6.03-1.95.73-4.76,3.09-5.96,4.79-1.74,2.47-.76,1.8.89,2.93.69.47,2.02,1.85,2.54,2.53.35.47.21,1.27,1.12,1.31,2.71-2.03,5.58-3.86,8.29-5.9,3.08-2.32,9.22-6.65,10.66-10.02.47-1.1.5-2.1.81-3.04s1.03-1.92,1.4-2.86c1.04-2.68,1.9-5.43,2.36-8.28ZM504.61,319.59v98.83l4.47.11c.3-2.6,1.69-4.38,4.23-5.09,2.16-.6,3.68-.26,5.69-.39,1.09-.07,4.1-1.03,5.26-1.43,2.42-.84,7.25-2.85,8.32-5.26,4.56-11.87,5.65-24.68,9.51-36.71.61-1.91,1.5-3.16,1.64-5.25.2-2.89-.44-5.97-.22-8.94.07-1.02.71-2.66.64-3.44-.1-.99-1.35-.65-1.24-2.62.16-2.73,2.41-7.05,2.82-10.16.89-6.84.24-13.94,2.31-20.6,1.5-4.82,4.25-9.06,7.15-13.12.42-6.69.71-13.52-.82-20.1-.74-3.16-2.16-6.17-2.79-9.37l-.77-.35c-.4,3.02-1.42,5.96-2.43,8.82-.65,1.84-1.48,4.11-2.2,5.91-2.09,5.27-12.02,11.84-16.8,15.23-6.24,4.44-13.66,9.4-20.74,12.3-.68.28-1.7.44-2.47.78-.31.14-1.53.64-1.59.84ZM558.94,296.99v3.04c6.38-.18,13-2.82,18.27-6.36.77-.52,4.08-2.9,4.17-3.7.03-.3-.13-2.19-.2-2.56-.04-.22-.11-.7-.45-.56-6.22,5.27-13.81,8.61-21.79,10.14ZM558.94,289.89v2.94c0,.4,2.08.12,2.49.05.68-.12,1.43-.58,2.18-.56l-4.66-2.43ZM583,293.57c-.54.16-2.61,2.54-3.5,2.81-.17.21-.08.4,0,.61.22.67,2.37,3.27,2.96,3.94,1.65,1.86,3.58,3.76,5.97,4.57.65-.13-.19-2.93-.36-3.49-.61-2.11-1.7-4.39-2.9-6.23-.42-.64-1.36-2.45-2.17-2.22ZM580.11,303.8c-1.21-1.38-2.48-3.68-3.63-4.79-.17-.16-.29-.4-.58-.36l-4.21,2.13c1.54,6,5.98,11.99,11.18,15.35.73.47,3.75,2.37,4.46,1.86.58-2.79,1.69-5.57,1.51-8.43-1.11-.69-2.52-.87-3.74-1.53-1.59-.87-3.78-2.85-4.99-4.23ZM518.53,304.57c-.53-.39-2.01-1.24-2.62-1.06-.2.06-3,2.62-3.09,2.81-.12.26-.13.38-.06.65.23.92,1.81,2.53,1.59,3.8.38.38,5.56-2.78,5.77-3.25.43-.93-.89-2.44-1.59-2.96ZM552.45,317.67c.16.16,4.3-.71,4-1.69-.59-1.41-.06-3.19-1.06-4.39-.56.67-3.32,5.7-2.94,6.08ZM556.25,320.35c-.35.07-.74.36-1.16.47-.95.23-3.54.56-4.07,1.2-.22.27-.76,2.74-.81,3.25-.05.55-.1,3.25.2,3.46,1.5-.06,8.3-1.55,8.83-2.75l-1.74-5.36c-.28-.45-.81-.36-1.26-.27ZM601.3,320.91v4.56c0,.19.32.81.3,1.12l.24.17c1.38.09,2.67-.21,3.91.55l.42-.22v-5.07c-1.27-1.39-3.11-1.5-4.86-1.12ZM560.93,329.67c-.5-.29-3.5,1.2-4.26,1.45-2.13.68-4.28,1.16-6.52,1.34-.68.43-.42,4.16-.74,5.07.89.34,1.94.12,2.88-.04,3.62-.6,6.98-2.21,10.29-3.7.76-.61-1.46-3.24-1.66-4.12ZM569.28,341.39c.05-.38,0-.6-.19-.92-.63-1.08-2.83-2.34-3.47-3.63-.85-.72-2.97.94-3.9,1.35-4.2,1.82-8.23,2.81-12.78,3.39-.21.77-1.86,5.59-1.55,5.9.43.01.85.02,1.27-.05,4.04-.67,9.9-2.63,13.93-3.91,2.23-.71,4.38-1.72,6.69-2.13ZM595.02,350.11h3.34c.77,0,2.33.7,2.87,1.29.96,1.03.77,3.68.68,5.1-.11,1.66-.66,3.3-.61,4.97h3.65c.02-2.37-1.49-8.15,0-9.98.51-.63,2.16-1.37,2.94-1.37h3.34c.17-1.22-1.77-.86-2.52-1.03-.97-.21-3.11-.8-3.78-1.49-.66-.68-.68-1.85-.1-2.56.15-.18,1.7-1.07,1.33-1.4l-5.47.2c-.25.96.43.78.82,1.31,1.29,1.75-.69,3.02-2.19,3.5-1.19.39-2.92.33-3.96.7-.42.15-.37.39-.35.77ZM512.72,418.22c1.12.7,2.24.04,3.55.2.9.11,2.07.69,3.06.8,3.68.39,6.21-1.48,9.71-1.8,2.82-.26,5.29,1.2,8.1,1.42,1.98.16,6.59.42,6.99-2.15.46-2.95-.59-4.09-.99-6.49-.81-4.88,1.89-14.95,4.48-19.21.75-1.23,1.93-2.15,2.8-3.29,5.04-6.57,8.26-13.57,7.71-22.09-.08-1.17-.52-2.35-.49-3.65.04-1.55.86-4.29,1.31-5.87.81-2.79,1.89-5.6,3.15-8.21l-.22-.41c-2.48.64-4.92,1.46-7.39,2.14-1.77.48-4.08.77-5.73,1.36-.85.31-1.12,1.65-1.32,2.53-.91,4.05.19,7.08-.04,10.91-.19,3.21-2.29,7.29-3.2,10.59-1.82,6.61-2.66,13.47-4.45,20.08-.97,3.61-2.41,9.1-3.77,12.44-1.68,4.14-8.41,6.8-12.42,8.06-2.97.93-4.09.95-7.09,1.02-1.27.03-3.29.27-3.74,1.63Z"/>
        <path d="M562.59,215.7c.89,2.1,3.36-.09,5.01.77,1.95,1.01,1.1,2.94-.69,3.44-2.69.76-6.95.21-8.56-2.34-.82-1.29-.77-1.69.11-2.87,2.27-3.05,6.58-4.53,10.22-3.36.96.31,1.6,1.06,2.39,1.47,1.07.54,3.42.81,3.99,1.48,1.06,1.23.06,2.76-1.4,2.85-2,.13-3.69-1.25-5.34-1.99-2.47-1.1-3.4-.57-5.72.55Z"/>
        <path d="M566.37,310.44c.48.46,1.74,3.42,1.71,4.09-.07,1.65-2.14,2.42-3.15,1.1-.45-.59-1.6-3.43-1.55-4.14.11-1.58,1.92-2.07,2.98-1.05Z"/>
        <path d="M501.09,182.93c4.73,3.65,9.11,10.11,13.97,13.89,1.34,1.53,1.15,2.06-.1,3.56-4.08,4.91-9.95,9.3-14.19,14.19-1.05,1.02-1.94.31-2.84-.41-2.44-1.94-4.65-5.05-7.1-7.09-1.93-2.58-5.37-4.85-7.2-7.4-.69-.96-.53-1.55.11-2.49l14.7-14.55c1.15-.8,1.69-.46,2.66.29ZM502.71,207.71l8.81-9.15-12.07-11.88-11.83,11.84,11.78,11.94.52.13,2.79-2.89Z"/>
      </g>
    </g>
    <g id="wlWZrS.tif">
      <g>
        <path d="M1754.91,185.58c9.11,7.38,19.33,18.37,27.27,27.14,26,28.73,49.7,64.93,54.99,104.05-10.72,27.86-9.71,58.92-10.4,88.41-.76,3.15-8.23,6.29-11.17,6.66-3.35.41-4.16-2.66-1.22-3.92,1.4-.6,8.41-2.24,8.45-3.96.02-1.05-1.77-1.87-2.6-2.26-10.9-5.19-32.53-6.39-44.81-7.06-21.46-1.17-43.46-1.24-64.84,1.36-6.75.82-20.6,2.78-26.36,5.79-1.3.68-3.16,1.7-1.68,3.13,2.57,2.5,15.51,4.94,19.46,5.59,19.69,3.2,41.79,3.65,61.81,3.32,1.01-.02,1.76-.41,2.94-.26,2.83.37,3.2,3.75-.24,4.03-10.69.9-22.78.2-33.5-.29-13.95-.65-29.7-1.47-43.16-5.2-3.82-1.06-11.8-3.82-12.04-8.51-.14-2.64.28-6,.22-8.84-.43-21.81-.8-48.39-7.12-69.27-.92-3.03-3.4-7.69-3.13-10.57,1.22-13.14,7.08-28.84,12.7-40.75,16.37-34.65,42.82-64.51,71.08-89.85,1.39-.71,2.38.49,3.33,1.26ZM1774.86,211c-6.93-7.44-14.12-14.57-21.58-21.49-.83-.68-1.67.17-2.31.69-2.97,2.4-6.51,6.04-9.33,8.77-22.87,22.15-44.51,49.43-57.9,78.45-5.67,12.29-10.52,25.8-11.64,39.35l2.82,7.17c9.46-22.54,21.09-44.25,35.04-64.32,10.04-14.45,22.08-28.97,35.07-40.81.89-.81,5.93-5.45,6.5-5.65.9-.31,1.6-.24,2.41.27,1.22.76,4.16,3.7,5.42,4.84,28.16,25.61,51.18,61.96,66.78,96.58,1.09,2.42,2.39,6.72,3.67,8.75.17.28-.02.47.61.35.58-3.65,2.72-5.94,2.4-9.82-.66-8.02-4.67-19.35-7.6-26.96-10.82-28.18-29.92-54.23-50.34-76.15ZM1752.24,217.88c-.4.11-3.42,2.84-3.43,3.34.32,1.14,2.29,6,3.38,6.1,1.7.16,3.37-4.76,3.91-6.1-.01-.65-3.3-3.49-3.86-3.34ZM1743.67,278.72v86.64l.93.42h16.63v-87.05c0-.1,1.13-1.23,1.49-1.21,5.89-.25,11.71.14,17.56.53,1.59.11,4.33-.42,5.52.69,1.07,1.01.65,3.2-.95,3.34-4.59.03-9.19-.63-13.75-.8-1.28-.05-4.02-.19-5.14.01-.3.06-.51.14-.68.4v83.94l.67.41c19.41,1.28,38.46,5.68,57.14,10.8.42-.36.46-9.07.55-10.39.67-9.92,1.87-20.36,3.57-30.17.22-1.25.86-2.88.99-4.14.19-1.94-2.79-8.59-3.71-10.81-5.04-12.13-11.23-23.79-17.59-35.26-2.04-.62-4.11-1.21-6.18-1.72-1.75-.43-6.34-.33-5.89-3.06.54-3.27,6.16-.78,8.13-.53.42.05.46.02.4-.4-.1-.7-1.82-3.34-2.32-4.16-2.63-4.33-5.66-8.41-8.37-12.69-.48-.43-2.99-.87-3.84-1.03-8.61-1.54-17.41-1.82-26.12-2.51l-1.36-1.07-.13-32.53c-.06-1.02-1.18-1.53-1.77-2.28-.94,1.61-1.5,3.39-2.7,4.86-4.95,6.08-9.53.39-11.22-4.86l-1.75,1.62-.21,32.99c-.33,1.48-2.53,1.42-3.85,1.55-4.46.45-9.05.31-13.5.82l-13.58,2.08c-.57.26-5.52,7.91-6.28,9.11-1.06,1.65-4.4,6.37-4.81,7.88-.11.4-.2.72.35.63,13.18-2.86,26.76-3.35,40.25-3.24.38.01,1.44,1.02,1.49,1.21ZM1739.62,230.27c-.82.16-1.58,1.14-2.17,1.75-3.16,3.23-6.25,6.8-9.17,10.27-4.3,5.1-8.37,10.43-12.17,15.91l23.51-2.43v-25.51ZM1765.29,230.27v25.51l23.51,2.43c-3.76-5.51-7.88-10.81-12.17-15.91-2.68-3.2-5.72-6.78-8.63-9.73-.31-.31-2.43-2.61-2.71-2.29ZM1739.62,365.62v-83.94c-1.32-.97-3.52-.18-5-.14-10.28.31-20.65.56-30.72,2.78-1.97.43-3.87,1.1-5.82,1.61-6.74,12.17-13.35,24.53-18.57,37.45-1.04,2.57-2.31,5.28-2.87,7.95,1.86,9.35,3.29,18.83,4.07,28.34.43,5.19.38,10.46.82,15.65.04.51.27.98.27,1.49,18.67-5.13,37.73-9.51,57.14-10.8l.67-.41ZM1822.83,398.41v-17.41c-10.6-2.85-21.28-5.6-32.09-7.61-35.37-6.57-71.65-3.72-106.02,6.75-.8.24-2.78.66-2.92,1.4l.27,16.87c2.06-.59,3.96-1.57,6.01-2.23,11.39-3.65,25.41-4.53,37.35-5.33,24.22-1.61,48.79-1.55,72.91,1.66,6.02.8,12.71,1.84,18.48,3.67,2.05.65,3.93,1.77,6,2.23Z"/>
        <path d="M1792.25,411.72c.94-.08,2.27-.21,3.18-.09,2.09.28,2.39,3.04.46,3.73-2.69.96-7.54.46-10.48,1.16-2.26-.03-3.18-2.57-1-3.73l7.84-1.07Z"/>
        <path d="M1751.17,257.33c9.96-1.48,15.12,12.46,7.49,18.82-7.48,6.23-17.1-.7-16.07-9.85.22-1.96,1.65-3.89,3.52-2.17,1.32,1.2.42,2.67.52,4.34.37,6.11,8.02,8.34,10.92,2.52,1.91-3.84-.19-9.57-4.83-9.7-1.36-.04-2.61.8-3.76-.27-1.86-1.73.32-3.41,2.21-3.69Z"/>
        <path d="M1752.24,283.22c2.18-.66,3.34,1.31,2.2,3.27-.48.82-2.28,1.95-1.44,2.88.42.46,1.27-.48,1.91-.54,1.05-.1,2.17.69,2.27,1.78.14,1.55-3.07,4.7-4.79,3.95-.28-.12-3.68-3.7-3.97-4.13-1.31-1.93-.48-2.32.67-3.88.47-.64,2.56-3.15,3.15-3.33Z"/>
        <path d="M1754.4,324.54c2.23,1.78-1.83,4.41-1.75,5.19.11,1.17,1.52.2,1.99.13,1.35-.19,2.76.84,2.55,2.28-.12.82-3.08,3.56-3.93,3.55-1.25,0-5.66-4.93-5.54-6.22.06-.61,3.23-4.42,3.8-4.86.83-.63,2.02-.76,2.88-.07Z"/>
        <path d="M1752.52,344.48c.58-.11,1.52.25,1.95.65,1.59,1.49-.57,3.27-1.48,4.43-.24.3-.52.34-.28.82.52,1.03,1.08.11,1.65.01,2.23-.41,3.63,1.26,2.16,3.23-.8,1.08-2.75,2.95-4.19,2.28-.69-.32-4.56-4.89-4.6-5.69-.05-.95,3.79-5.54,4.8-5.74Z"/>
        <path d="M1751.6,314.38c-.58-.49-2.68-3.01-3.18-3.71-.31-.44-.73-.85-.7-1.43.05-1.07,4.17-5.81,5.22-5.76.98.04,2.13,1.19,2.07,2.21-.08,1.33-2.52,3.08-2.4,3.76l.64.66c2.45-1.98,5.14.25,3.1,2.88-1.23,1.59-2.85,3.01-4.76,1.4Z"/>
        <path d="M1749.46,242.8c1.09-1.41,3.42-4.56,5.14-1.99,1.32,1.98-1.38,3.21-1.98,4.94l.64.64c1.34-1.25,3.94-.77,3.95,1.29,0,1.11-3.12,4.14-4.36,3.81-.81-.22-4.68-4.44-4.99-5.31-.45-1.28.87-2.44,1.6-3.38Z"/>
        <path d="M1715.23,264.86c.76-.15,1.48.37,2.14.72.79.42,4.51,2.81,4.75,3.35.7,1.61-.23,2.18-1.29,3.16-1.25,1.16-4.86,4.43-6.5,3.26-2.31-1.63,1.07-4.3,2.31-5.28,0-.54-3.99-1.6-2.83-4.18.16-.36,1.02-.97,1.41-1.04Z"/>
        <path d="M1788.99,264.86c.71-.12,1.79.39,2.09,1.04,1.17,2.57-2.83,3.64-2.83,4.18,1.11,1.37,3.23,1.9,2.96,4.02-.19,1.47-1.4,1.8-2.71,1.39-.49-.16-5.21-3.95-5.54-4.45-.63-.95-.56-1.93.28-2.72.47-.44,5.24-3.37,5.75-3.46Z"/>
        <path d="M1772.31,267.79c1.26,1.99,4.7,2.65,2.21,5.65-.85.22-1.4.29-2.19-.15-.65-.36-4.71-3.53-5.14-4.04-.88-1.04-.53-2.2.37-3.1.48-.48,4.85-3.13,5.44-3.21,3.84-.54,2.4,4.56-.7,4.85Z"/>
        <path d="M1730.24,273.37c-.62-.39-.76-2.02-.56-2.7.32-1.08,2.64-1.68,2.91-2.88-1.62-.81-3.4-1.48-2.96-3.65.2-.99,1.35-1.32,2.26-1.21.53.06,4.59,2.51,5.16,2.96,1.17.94,1.63,2.28.55,3.51-.41.47-4.42,3.55-5.03,3.89-.63.35-1.71.48-2.33.08Z"/>
        <path d="M1756.53,194.49c.89.69,4.24,3.29,4.39,4.13.32,1.76-2.47,4.13-4.08,3.8-2.21-.45-.78-2.78-1.26-3.54-.1-.17-2.93-2.37-3.13-2.37l-3.06,2.22c-.37.78.46,1.28.64,1.83.34,1.03-.16,2.26-1.22,2.59-1.7.54-5.16-2.73-4.83-4.54.25-1.41,6.39-5.41,7.72-6.62,1.76-.52,3.49,1.44,4.83,2.49Z"/>
        <path d="M1757.64,203.88c1.02-.29,7.33.68,8.52,1.09.26.09.53.13.74.34.73.61,3.13,7.57,2.93,8.56-.66,3.35-10.24,1.2-4.93-2.5l.08-.35c-.59-1.86-1.46-3.28-3.63-2.35.94,2.11-1.54,4.39-3.24,2.72-.95-.94-2.46-6.94-.47-7.51Z"/>
        <path d="M1743.67,208.41c-2.51-.28-3.19.56-3.72,2.84,5.48,4-4.57,6.02-4.92,2.39-.08-.82,2.42-7.86,2.97-8.34.21-.2.48-.25.74-.34,1.18-.41,7.77-1.43,8.7-1.01,1.63.73.6,4.48.15,5.8-1.32,3.86-5.01,2.06-3.92-1.35Z"/>
        <path d="M1770.77,225.87c-.32-.41-1.4-4.59-1.41-5.21-.03-1.59.99-2.33,2.53-2.27,1.4.06,5.51.81,6.92,1.21.33.09.67.19.94.41.71.57,3.13,7.45,2.98,8.39-.14.87-1.13,1.94-2.05,1.76-3.17-.64-1.9-6.76-5.34-7.12-1.8-.18-.84.91-.98,1.85-.25,1.68-2.68,2.17-3.58.98Z"/>
        <path d="M1730.7,222.98c-3.98-.39-3.25,3.39-4.66,5.74-.76,1.26-2.75,2.18-3.58.48-.82-1.68,1.77-7.46,2.69-9.19.45-.37,6.64-1.51,7.61-1.58,4-.29,2.66,3.76,1.86,6.19-1.21,3.63-4.86,1.82-3.92-1.63Z"/>
        <path d="M1792.76,236.02c.55.51,1.63,4.12,1.7,4.94.12,1.34-.97,2.38-2.29,2.29-1.78-.12-2.08-2.68-2.33-4.04l-2.67-.57c.72,2.65-3.05,4.3-3.89,1.88-.69-1.99-1.76-7.51,1.8-6.95,1.55.91,6.61,1.46,7.69,2.46Z"/>
        <path d="M1721.17,241.25c-1.3,1.06-2.85.22-3.32-1.27-.18-.56.42-1.3-.52-1.36-.35-.02-1.94.58-2.16.83-.86,1.02-.26,4.11-2.95,3.77-3.08-.4-.95-5.52-.08-7.2l8.16-2.52c3.24-.35,1.82,6.98.86,7.76Z"/>
        <path d="M1697.13,262.99c.96-.2,2.3-.1,2.66,1,.26.79.26,4.37-.13,5.03-1.38,2.32-3.03-.19-3.72-.39-1.02-.28-1.79,1.19-3.31.09-1.04-.75-1.05-2.03-.28-2.97.35-.43,4.24-2.65,4.8-2.77Z"/>
        <path d="M1806.27,262.98c.56-.17,1.16-.08,1.71.07.46.13,3.96,2.09,4.33,2.42.94.83,1.1,2.05.26,2.99-1.34,1.5-2.49-.14-3.59.17-.9.25-1.64,2.45-3.45.65-.76-.76-.76-4.54-.27-5.43.12-.21.77-.8,1.01-.88Z"/>
        <path d="M1798.79,252.67c-.04,3.03-3.85,3.61-4.31.66-.91-5.75,1.61-6.19,6.19-4.3,3.51,1.45,1.09,5.47-1.88,3.64Z"/>
        <path d="M1709.82,248.43c1.15.97,1.22,7.13-1.61,6.89-2.02-.18-1.72-2.59-2.23-2.64-2.07,1.31-3.85-.19-3.37-2.51.14-.68,4.79-2.24,5.57-2.28.37-.02,1.36.31,1.64.54Z"/>
        <path d="M1820.87,283.91c-.9.96-2.12.29-2.73.4-.51.09-.85,1.18-2.17,1.02-2.98-.36-1.32-5.3.37-5.82,1.95-.61,6.48,2.33,4.53,4.4Z"/>
        <path d="M1690.08,284.69c-1.7,1.71-2.58-.25-3.31-.38-.83-.15-2.37.75-2.96-1.13-.62-1.96,1.84-3.26,3.39-3.67,2.59-.68,4.4,3.66,2.88,5.18Z"/>
        <path d="M1822.21,293.21c2.23-.67,6.6,2.16,4.15,4.41-.88.81-3.75.96-4.61,0-.84-.95-.85-4.01.46-4.41Z"/>
        <path d="M1680.92,293.22c3.33-.7,3.52,3.28,2.11,4.53-1.31,1.16-5.69.56-5.23-1.97.17-.95,2.23-2.38,3.13-2.57Z"/>
        <path d="M1830.84,308.36c1.87,1.85-.72,4.57-3.62,2.67-1.88-1.24-.58-4.02,1.35-3.79.35.04,1.99.84,2.27,1.12Z"/>
        <path d="M1674.04,311.16c-2.28-2.29,2.7-5.38,4.22-3,1.65,2.56-2.64,4.59-4.22,3Z"/>
        <path d="M1752.25,371.2c.25-.04.38,0,.61.06.82.2,4.91,3.44,5.8,4.21,1.4,1.2,3.14,2.23,1.76,4.18-.47.66-6.38,6.49-6.82,6.68-1.47.61-2.34-.14-3.45-1.01-.84-.66-5.06-4.57-5.55-5.26-.62-.88-.89-1.54-.36-2.54.47-.89,7.1-6.2,8-6.33ZM1752.24,376.04l-2.87,2.77,3.09,2.88,3.12-3.12c0-.43-2.85-2.66-3.34-2.53Z"/>
        <path d="M1776.27,375.84c1.38,1.63.7,4.05-1.64,3.68-.95-.15-1.5-1.56-2.47-.83-.89.67-.57,1.65.34,2.15,1.53-.76,3.44-.65,3.76,1.37.27,1.68-3.45,4.06-5.02,3.38-.49-.21-3.98-4.68-4.18-5.27-.23-.66-.29-1.49,0-2.14.2-.46,4.39-4.42,4.92-4.54,1.29-.29,3.5,1.26,4.3,2.2Z"/>
        <path d="M1734.14,385.38c-1.54,1.23-5.41-1.27-5.53-2.8-.04-.51.84-1.9,1.29-2.11,1.15-.53,1.82.55,2.51.37,1.14-.42,1.07-2.1,0-2.37-.89-.23-1.54,1.69-3.53.85-3.06-1.3,1.57-6.23,4.06-5.68.71.16,4.93,4.31,5.05,4.95.11.56.05,1.19-.14,1.74-.1.3-3.45,4.85-3.71,5.06Z"/>
        <path d="M1720.08,377.99c.61.52,1.79,2.61,1.59,3.42-.11.47-3.09,4.65-3.56,5.11-2.51,2.47-5.53-2.04-4.65-3.83,1.02-2.05,2.56-.62,3.32-1.28.68-.59-.07-1.02-.14-1.5-.28-1.95,1.87-3.25,3.42-1.92Z"/>
        <path d="M1787.63,377.99c1.48,1.36-.28,2.77.48,3.43.7.61,1.3-.18,2.22.19,3.24,1.31-.6,7.46-3.35,5.11-.53-.45-3.85-5.17-3.85-5.72,0-1.5,2.56-4.78,4.49-3.02Z"/>
        <path d="M1814.82,383.12c1.53-1.48,3.76.02,3.32,2.08-.09.44-.59.97-.6,1.21-.03.57.9,1.7.66,2.9-.32,1.61-2.56,2.12-3.6.73-.26-.34-1.39-3.3-1.44-3.7-.08-.62,1.2-2.77,1.67-3.21Z"/>
        <path d="M1690.09,383.12c.46.45,1.74,2.6,1.67,3.21-.03.26-1.14,3.36-1.29,3.59-1.19,1.81-4.09.87-3.74-1.56.08-.59.67-1.44.65-1.96-.02-.46-.57-.93-.66-1.41-.34-1.89,1.93-3.27,3.38-1.86Z"/>
        <path d="M1701.72,379.58c2.26-.68,3.9,2.43,3.53,4.33-.07.34-.98,2.62-1.16,2.88-.62.88-2.46,1.16-3.22.27-1.17-1.36.17-2.63.15-3.64-.01-.78-.8-1.17-.56-2.41.09-.46.83-1.3,1.27-1.44Z"/>
        <path d="M1801.95,379.58c1.61-.36,2.81.91,2.5,2.49-.09.48-.54.78-.56,1.36-.02,1.02,1.46,2.66.02,3.78-2.31,1.8-4.22-2.15-4.33-4.05-.07-1.16,1.23-3.32,2.37-3.58Z"/>
      </g>
    </g>
    <g id="_4xPY6M.tif" data-name="4xPY6M.tif">
      <path d="M2044.63,816.35c.11-.03.49-.44.48-.64-4.93-.41-9.77-3.61-12.72-7.45-8.34-10.85-2.97-25.42,3.55-35.77,5.59-8.89,12.14-17.5,21.24-5.81,5.92,7.61,12.59,20.6,11.76,30.43-.74,8.81-8.02,17.69-17.06,18.6-.02.21.43.64.48.64h23.55c.23,0,2.71.87,3.14,1.06,5.34,2.35,7.35,7.11,7.68,12.65.34,5.68.71,24.17-.92,28.8-.56,1.59-3.29,4.49-3.29,4.78v66.97h28.88c4.07,0,8.48,5.32,8.87,9.2,1.25,12.35-9.22,23.91-21.44,24.7h-101.02c-11.9-.77-22.67-13.02-21.1-25,.48-3.67,5.02-8.9,8.85-8.9h28.72l.48-.48v-74.56c0-.43-3.78-4.49-4.17-7.45-.53-4.02-.55-17.58,0-21.57.61-4.39,6.25-10.2,10.78-10.2h23.23ZM2048.98,769.88c-.59-.41-3.22,3.29-3.67,3.91-5.67,7.79-13.85,23.59-4.22,31.26,6.36,5.07,15.52,2.37,18.46-5.08,3.71-9.37-5.18-22.8-10.57-30.09ZM2071.02,857.57c2.35,2.13,6.4.85,6.98-2.34-.71-8.41,1.01-18.57.03-26.78-.28-2.29-2.11-3.66-4.35-3.72l-51.75.23c-1.74.64-2.8,1.95-2.98,3.8-.37,3.96-.46,13.59,0,17.45.61,5.04,7.51,5.05,8.32.56.69-3.81.24-5.63,2.99-8.96,6.15-7.44,18.68-5.47,21.76,3.71,1.09,3.24-.11,7.5,4.11,8.49,2.27.53,4.39-1.09,4.96-3.32.22-.85.04-1.67.38-2.52,1.41-3.48,7.36-3.13,8.07.8.6,3.32-1.07,10.28,1.46,12.57ZM2023.17,859.12v71.01l.48.48h49.69l.48-.48v-62.62c-.54-.78-1.54-.35-2.34-.56-3.01-.79-5.65-2.2-7.6-4.66-1.09-1.37-1.52-2.92-2.53-4.27-7.19,2.44-15.15-1.87-16.81-9.31-.59-2.66.04-6.34-3.82-6.83-5.55-.7-4.45,4.76-5.46,8.03-1.56,5.03-6.38,8.37-11.55,8.78l-.54.43ZM1986.28,939.39c-2.23.67-.63,5.84-.06,7.36,2.02,5.33,7.33,8.81,12.89,9.38l99.36-.05c6.01-.85,11.54-5.18,13.01-11.2.42-1.73.99-4.1-.55-5.39l-124.65-.1Z"/>
    </g>
    <g id="W2MsM6.tif">
      <g>
        <path d="M1747.13,1126.4h17.69c3.53,0,1.3,11.92,2.21,14.35.62.89,3.6.14,4.86.51.59.17,2.11,1.97,2.11,2.37v105.43h25.97v-85.29c0-.76,2.68-3.56,3.92-2.62,15.21,7.01,30.98,13,46.08,20.23,1.1.53,6.41,2.84,6.41,3.88v121.1h6.94c1.75,0,4.31,5.78-1.32,6.29h-185.85c-4.89-.57-2.72-6.29-.89-6.29h6.94v-92.45c0-3.36,7.47-1.22,8.31-2.43.77-2.03-.97-13.01,1.76-13.01h21.72v-55.29c0-.14,1.7-1.8,2.11-1.92,1.32-.39,3.2.08,4.61-.09v-11.42c0-.93,1.43-3.36,2.46-3.36h17.69v-10.52c0-1.46,2.97-2.47,4.47-1.78.23.11,1.8,1.66,1.8,1.78v10.52ZM1760.56,1132.66h-32.91l-.67.67v7.16l.67.67h32.91v-8.51ZM1767.72,1147.44h-47.46v50.37l.67.67h7.16c.7,0,2.01,1.82,2.01,2.46v10.97h6.49c.41,0,2.01,2.4,2.01,2.91v91.55h11.19v-54.84c0-.78,2.15-2.46,2.91-2.46h15v-101.63ZM1850.11,1188.18l-42.97-19.06-.91.48v79.47h18.58c.31,0,2.46,1.81,2.46,2.01v54.62l.67.67h22.16v-118.19ZM1723.84,1204.74h-26.87v7.16h26.19l.67-.67v-6.49ZM1732.35,1218.17h-43.88v88.2h43.88v-88.2ZM1821.01,1255.33h-64.92v51.04h5.82v-42.76c0-1.16,2.6-2.64,3.81-2.46,14.55,1.01,30.91-1.34,45.24-.02,1.66.15,4.68.81,4.68,2.93v42.31h5.37v-51.04ZM1768.17,1283.98h16.79l.67-.67v-15.22l-.67-.67h-16.79v16.56ZM1809.36,1283.98v-15.89l-.67-.67h-16.79v16.56h17.46ZM1785.63,1290.25h-17.46v16.12h17.46v-16.12ZM1809.36,1290.25h-17.46v16.12h17.46v-16.12Z"/>
        <path d="M1751.92,1177.51c4.67-.73,4.1,7.98,3.61,10.78-.69,3.9-5.65,3.21-6.15.54-.21-1.12-.2-8.34.08-9.3.22-.74,1.71-1.91,2.46-2.03Z"/>
        <path d="M1754.62,1220.53c1.3,1.22,1.31,8.52.91,10.31-.75,3.38-5.56,3.28-6.16.09-.25-1.3-.2-7.56.09-8.85.52-2.35,3.75-2.87,5.16-1.55Z"/>
        <path d="M1735.37,1156.48c4.19-.36,3.73,8.58,3.15,11.24-.7,3.19-5.74,3.05-6.18-.79-.35-2.98-.95-10.1,3.03-10.44Z"/>
        <path d="M1735.33,1177.57c1.97-.1,3.09,1.4,3.3,3.21.18,1.61.22,6.5-.11,7.97-.68,3.09-5.71,3.3-6.18-.79-.33-2.87-.93-10.19,2.99-10.4Z"/>
        <path d="M1754.62,1169.26c-1.05.98-4.01.86-4.84-.53-.58-.96-.69-8.98-.33-10.23.57-1.95,3.52-2.6,5.08-1.23,1.62,1.42,1.6,10.57.09,11.99Z"/>
        <path d="M1751.02,1199.01c.94-.29,2.65-.16,3.46.4,1.54,1.05,1.45,8.61,1.06,10.39-.73,3.31-5.63,2.94-6.16.08-.37-1.98-.55-10.2,1.64-10.87Z"/>
        <path d="M1834.55,1211.79c-1.3-1.22-1.31-8.52-.91-10.31.78-3.48,5.61-3.04,6.16-.08.25,1.32.2,7.54-.08,8.85-.52,2.35-3.75,2.87-5.16,1.55Z"/>
        <path d="M1835.18,1241.53c1.23-.43,3.49-.19,4.21,1.02.58.97.69,8.97.33,10.23-.75,2.57-5.59,2.78-6.15-.83-.29-1.86-.48-9.69,1.61-10.42Z"/>
        <path d="M1819.55,1199.01c1.57-.14,3.06,1.23,3.27,2.8.17,1.34.19,7.8-.12,8.88-.79,2.77-5.7,2.37-6.18-1.69-.35-2.93-.89-9.66,3.03-10Z"/>
        <path d="M1835.18,1220.49c2.11-.73,4.23.12,4.61,2.41.21,1.27.24,7.77-.07,8.83-.78,2.69-5.61,2.56-6.15-.83-.29-1.85-.48-9.69,1.61-10.42Z"/>
        <path d="M1835.66,1262.58c1.9-.57,3.81.34,4.13,2.4.2,1.3.25,7.76-.06,8.83-.81,2.77-5.57,2.86-6.15-.83-.36-2.31-.65-9.6,2.09-10.41Z"/>
        <path d="M1835.66,1283.62c1.9-.57,3.81.34,4.13,2.4.2,1.3.25,7.76-.06,8.83-.81,2.77-5.57,2.86-6.15-.83-.36-2.31-.65-9.6,2.09-10.41Z"/>
        <path d="M1817.54,1220.98c1.05-.98,4.01-.86,4.84.53.58.97.69,8.97.33,10.23-.6,2.05-3.83,2.36-5.27.98-1.4-1.33-1.34-10.38.11-11.74Z"/>
        <path d="M1697.3,1259.46l25.4-.07c3.69.57,3.69,5.65,0,6.21-7.22,1.12-17.06-.75-24.57,0-3.48-.55-4.2-4.96-.82-6.15Z"/>
        <path d="M1697.74,1282.29c7.56.57,17.18-1.1,24.49-.05,4.25.61,4.2,5.62.46,6.2-7.36,1.14-17.38-.78-25.04.02-3.37-1.34-3.42-4.99.08-6.16Z"/>
        <path d="M1696.84,1236.62l26.32-.07c2.58.48,2.99,4.57.68,5.58-.61.26-3.38.6-4.25.67-5.24.41-14.01.42-19.24,0-4.27-.35-7.39-2.25-3.5-6.17Z"/>
      </g>
    </g>
    <g id="_0FZHHZ.tif" data-name="0FZHHZ.tif">
      <path d="M499.38,1132.15c-3.04-1.09-5.79-2.82-9.13-2.96-14.12-.57-26.6,13.19-24.57,27.16.39,2.7,2.14,4.45,2.43,7.05-20.82,4.46-20.44,39.14.51,43.06-11.66,18.66,11.84,42.17,30.76,31.25,4.61,19.92,35.61,20.6,42.82,2.06,25.65,32.56,60.95,56.57,100.1,70.11,2.56.33,4.33-2.92,1.86-4.45-36.86-12.87-70.13-34.8-95.03-64.9,2.38-.36,4.99.07,7.38-.31,14.39-2.29,25.54-20.84,16.72-33.76,21.05-4.09,21.29-38.32.51-43.06.29-2.6,2.04-4.35,2.43-7.05,2.59-17.87-17.41-33.58-33.7-24.21-4.51-20.71-38.56-20.69-43.08,0ZM519.44,1160.28c-2.46-9.89-9.46-17.61-15.83-25.2,2.06-13.76,19.59-17.7,29.63-9.34,2.12,1.77,5.53,6.98,5,9.68-.09.48-5.63,6.08-6.54,7.25-3.93,5.05-7.64,11.41-9.29,17.62h-2.98ZM555.41,1134.32c11.95,1.89,21.85,18.03,12.34,27.98-10.05-.44-19.78,2.01-28.89,5.99l-1.45-1.97c4.86-8.7,5.72-18.75,6.32-28.54,3.28-2.98,7.25-4.16,11.67-3.46ZM491.84,1134.32c1.54.26,5.97,2.29,6.42,3.83.45,1.54-.07,3.81.11,5.53.63,5.9,1.78,11.8,3.56,17.45.82,2.59,4.52,7.19-.11,6.82-8.69-4.19-18.09-5.94-27.73-5.64-10.56-11.83,3.43-30.43,17.74-27.98ZM527.08,1161.36c-.87-.94,8.47-17.51,11.28-18.44-.04,7-1.84,14.06-4.65,20.46l-6.63-2.02ZM508.13,1163.4c-2.51-6.52-4.89-13.4-4.64-20.49,3.9,3.8,10.09,12.47,11.2,17.77.22,1.04-.03.51-.63.73-1.94.71-3.94,1.43-5.93,1.99ZM524.64,1165.59c12.45,1.69,19.14,16.15,14.24,27.29-4.8,10.91-18.49,15.17-28.58,8.57-17.57-11.5-8.05-38.9,14.34-35.86ZM545.59,1183.45c7.01-2.2,13.52-6.18,19.15-10.83,1.32-1.09,4.43-4.98,5.66-5.11,18.55,2.32,18.51,32.36-.04,34.81-1.17-.07-4.8-4.49-6.13-5.59-2.85-2.35-6.24-4.62-9.46-6.43-1.87-1.06-7.72-3.23-8.73-4.08-.74-.62-.61-1.88-.45-2.77ZM544.52,1178.79c.08-1.71-2.94-5.82-1.54-6.92,1.14-.9,7.45-2.68,9.22-3.08,3.52-.81,7.15-1.45,10.77-1.27-1.34,2.7-17.27,12.14-18.45,11.27ZM478.88,1167.52c7.12-.23,14.04,1.83,20.47,4.65l-2.02,6.62c-1.02.93-17.35-8.6-18.45-11.27ZM496.26,1183.45c.99,3.55-2.86,3.38-5.26,4.62-4.41,2.28-8.94,5.11-12.87,8.15-1.24.96-6.39,6.07-7.17,6.11-13.39-2.41-17.21-19.36-9.51-29.44,1.96-2.56,6.28-5.35,9.56-5.37,1.82,0,4.49,3.77,6.1,5.09,5.63,4.65,12.14,8.63,19.15,10.83ZM544.52,1191.08c1.13-.85,17.27,8.43,18.45,11.27-7.09.23-14-1.97-20.47-4.65l2.02-6.62ZM478.88,1202.35c1.03-2.83,17.35-12.3,18.45-11.27l2.02,6.62c-6.46,2.64-13.4,4.85-20.47,4.65ZM539.11,1201.51c7.26,3.46,15.09,5.14,23.09,5.97,1.81.19,4.83-.5,6.19.48,10.98,14.61-9.74,35.51-24.43,24.42-.68-.94-.75-9.06-1.05-11.25-.83-6.14-2.77-12.12-5.36-17.71l1.57-1.91ZM502.73,1201.47c3.17.27-.22,5.56-.78,7.28-1.25,3.79-2.47,8.42-3.01,12.37-.3,2.19-.37,10.31-1.05,11.25-14.68,11.03-35.35-9.77-24.43-24.42,1.03-.74,9.07-.75,11.26-1.04,3.84-.53,8.66-1.83,12.38-3,1.06-.33,5.32-2.47,5.63-2.44ZM527.08,1208.51l6.63-2.02c2.81,6.4,4.61,13.46,4.65,20.46-2.87-.92-12.13-17.5-11.28-18.44ZM503.5,1226.96c-.22-2.78.25-5.49.75-8.22.37-2.01,2.62-10.51,3.61-11.77,1.22-1.55,5.08,2.05,6.92,1.55.8.88-8.42,17.55-11.27,18.44ZM519.44,1209.59h2.97c1.73,6.6,5.65,12.77,9.81,18.12.84,1.08,5.84,6.07,5.93,6.65.45,2.96-2.43,7.6-4.68,9.49-10.13,8.54-28.15,4.63-30.02-9.49l.13-.65c7.28-5.97,13.01-15.12,15.85-24.13Z"/>
    </g>
  </g>
</svg>